<svg version="1.1" id="Layer_1" xmlns="http://www.w3.org/2000/svg" xmlns:xlink="http://www.w3.org/1999/xlink" x="0px" y="0px"
	 width="100%" viewBox="0 0 3000 3000" enable-background="new 0 0 3000 3000" xml:space="preserve">
<path fill="#000000" opacity="1.000000" stroke="none" 
	d="
M1458.000000,3002.000000 
	C972.000061,3002.000000 487.000183,3002.000000 2.000195,3002.000000 
	C2.000130,2002.000244 2.000130,1002.000549 2.000065,2.000598 
	C1001.999573,2.000399 2001.999146,2.000399 3001.999023,2.000199 
	C3001.999512,1001.999329 3001.999512,2001.998657 3001.999756,3001.999023 
	C2487.666748,3002.000000 1973.333374,3002.000000 1458.000000,3002.000000 
M1212.819214,1013.395081 
	C1212.247681,1027.028809 1211.676270,1040.662476 1210.390503,1055.398926 
	C1208.796753,1061.069336 1203.618530,1061.235962 1199.277344,1062.393677 
	C1134.836426,1079.577515 1071.927979,1101.299805 1010.262024,1126.605225 
	C963.090271,1145.962769 917.272217,1168.175171 872.495056,1192.607788 
	C826.855957,1217.510620 782.114746,1243.816772 738.147888,1273.782471 
	C729.187439,1271.433960 720.180603,1269.248169 711.274719,1266.708252 
	C675.248901,1256.433716 639.399109,1245.503418 603.195923,1235.902832 
	C579.876099,1229.718750 556.062988,1225.386719 532.444458,1220.348755 
	C529.888428,1219.803467 527.156250,1220.000488 524.505798,1220.000610 
	C520.973145,1220.000732 520.267273,1222.569946 519.405151,1226.108765 
	C519.420593,1226.964233 519.436035,1227.819580 519.465759,1229.507812 
	C519.464661,1230.063110 519.479675,1230.618042 519.144287,1231.973633 
	C519.293335,1232.808105 519.442322,1233.642700 519.657104,1236.262939 
	C519.598022,1242.954346 519.538879,1249.645752 519.177307,1256.950562 
	C519.284790,1257.826538 519.392273,1258.702515 519.597412,1261.488037 
	C521.104065,1289.244385 521.983765,1317.052734 524.282715,1344.743408 
	C526.908813,1376.373901 530.798157,1407.899780 533.566040,1440.790039 
	C523.898254,1450.835815 514.135498,1460.792358 504.584930,1470.948486 
	C490.254547,1486.187256 474.334106,1500.073730 462.997803,1517.908325 
	C451.816254,1535.499512 443.096405,1554.430664 442.224701,1575.441040 
	C441.442535,1594.294312 443.148163,1613.250732 443.527771,1633.991699 
	C444.572632,1647.247314 444.404297,1660.735352 446.892456,1673.714355 
	C454.025146,1710.920166 459.428345,1748.468628 469.044891,1785.202148 
	C477.280548,1816.661011 484.235138,1848.460449 492.752136,1879.838989 
	C500.755249,1909.324585 509.915375,1938.501099 518.853149,1967.725830 
	C523.703064,1983.583984 529.063782,1999.288330 534.348999,2015.010010 
	C542.918762,2040.501831 551.169250,2066.114746 560.426086,2091.356934 
	C566.025208,2106.624512 572.780212,2121.525879 579.879761,2136.173096 
	C592.470642,2162.150146 605.199524,2188.088867 618.906921,2213.484375 
	C625.971924,2226.574219 635.603699,2238.251709 643.474548,2250.940186 
	C654.746033,2269.110840 668.714355,2285.097168 682.901245,2300.899658 
	C691.294189,2310.248047 700.337769,2319.019287 709.210876,2327.928467 
	C719.726135,2338.486572 730.376404,2348.909668 740.954407,2359.405273 
	C741.660583,2360.105957 742.249939,2360.924316 742.896301,2361.685303 
	C750.959045,2371.180664 759.055359,2380.647949 767.074829,2390.179443 
	C772.997070,2397.218262 782.525269,2400.170410 787.493164,2408.287598 
	C787.809509,2408.804443 788.561340,2409.394531 789.100220,2409.384521 
	C796.880920,2409.243408 800.361938,2415.817383 805.328430,2419.904785 
	C811.940491,2425.346191 817.872864,2431.626465 824.581543,2436.934326 
	C836.228821,2446.149658 847.813660,2455.558350 860.217773,2463.673828 
	C876.336792,2474.219727 893.195435,2483.640869 909.803955,2493.430420 
	C920.941589,2499.995361 931.875366,2507.019287 943.467102,2512.676758 
	C968.249390,2524.772217 993.116394,2536.781494 1018.492737,2547.543701 
	C1037.424438,2555.572510 1057.090210,2561.951660 1076.651611,2568.389160 
	C1092.110596,2573.476562 1108.241699,2576.625977 1123.493286,2582.219971 
	C1170.846313,2599.588623 1219.865356,2609.876221 1269.428589,2618.022217 
	C1301.239380,2623.250244 1333.071289,2628.374023 1364.959717,2633.099365 
	C1402.095459,2638.602051 1439.287476,2643.735840 1476.491333,2648.760498 
	C1485.344604,2649.956543 1494.382446,2649.742188 1503.262939,2650.790771 
	C1514.148804,2652.075928 1524.939941,2654.144043 1535.806641,2655.618408 
	C1546.150879,2657.022705 1556.306885,2655.833252 1567.991333,2652.364502 
	C1576.006958,2651.590820 1584.022705,2650.817139 1593.886841,2650.128662 
	C1615.687256,2647.939453 1637.498291,2645.850098 1659.283081,2643.515137 
	C1668.848511,2642.489990 1678.383789,2641.114258 1687.891846,2639.635742 
	C1707.921875,2636.520752 1727.906128,2633.110840 1747.943481,2630.045898 
	C1772.891724,2626.229980 1797.922119,2622.931396 1822.828613,2618.867188 
	C1844.793213,2615.282471 1866.720581,2611.357910 1888.506836,2606.826172 
	C1907.042603,2602.970459 1925.487793,2598.518311 1943.730591,2593.456055 
	C1966.742920,2587.070312 1989.487915,2579.726318 2012.390625,2572.938477 
	C2022.576538,2569.919922 2033.057739,2567.798584 2043.064331,2564.296875 
	C2059.053955,2558.700928 2074.875488,2552.576416 2090.558105,2546.162598 
	C2113.281006,2536.869629 2136.458496,2528.378906 2158.280518,2517.264893 
	C2189.932617,2501.144287 2220.763428,2483.361084 2251.531006,2465.571777 
	C2272.492676,2453.451904 2291.846680,2438.968262 2309.393799,2422.104736 
	C2313.833008,2417.838623 2319.720459,2415.083008 2324.926758,2411.610107 
	C2326.538574,2410.534912 2328.554688,2409.702637 2329.600830,2408.208984 
	C2333.097168,2403.218506 2337.260742,2399.433350 2343.185791,2397.386230 
	C2345.511963,2396.582520 2347.504395,2394.360352 2349.259277,2392.429688 
	C2358.547363,2382.213135 2367.355713,2371.534668 2377.014893,2361.687744 
	C2387.453857,2351.045898 2398.737793,2341.237793 2409.484863,2330.891357 
	C2418.768311,2321.953857 2427.705322,2312.656250 2436.991943,2303.722168 
	C2451.594727,2289.674316 2464.336670,2274.135254 2476.524902,2257.937012 
	C2496.356445,2231.580566 2513.637451,2203.696777 2529.123047,2174.681885 
	C2536.941162,2160.033691 2543.694092,2144.814209 2550.841797,2129.811523 
	C2560.253174,2110.059326 2570.354736,2090.607666 2577.242188,2069.744385 
	C2584.220703,2048.605713 2591.167236,2027.455933 2598.208984,2006.338257 
	C2606.401123,1981.771606 2614.990479,1957.332764 2622.843262,1932.658936 
	C2632.104248,1903.560791 2641.203857,1874.395874 2649.523682,1845.019043 
	C2655.132080,1825.217529 2659.286621,1805.003662 2664.059570,1784.966675 
	C2668.375244,1766.851318 2672.968750,1748.794189 2676.846436,1730.585083 
	C2680.578613,1713.058716 2683.847412,1695.419067 2686.748535,1677.735352 
	C2688.574219,1666.608521 2689.347412,1655.309204 2691.228516,1642.773560 
	C2695.750488,1628.732300 2698.464600,1614.542236 2696.401855,1599.634644 
	C2695.681885,1594.431519 2696.679688,1589.011841 2696.571533,1583.697632 
	C2696.444092,1577.436890 2696.788574,1571.007690 2695.494385,1564.958252 
	C2690.833496,1543.170654 2682.032227,1523.069336 2667.280518,1506.214966 
	C2655.245361,1492.464844 2642.253418,1479.549072 2629.619873,1466.326294 
	C2618.609619,1454.802368 2607.507080,1443.366333 2596.607666,1430.403442 
	C2597.035400,1428.135498 2597.643799,1425.884766 2597.862793,1423.596680 
	C2599.849854,1402.838867 2601.671875,1382.064697 2603.746094,1361.315674 
	C2604.898193,1349.787231 2606.671387,1338.318848 2607.730713,1326.783569 
	C2608.610596,1317.200928 2608.928467,1307.563599 2609.367920,1297.944580 
	C2610.396729,1275.418091 2613.261719,1252.930298 2611.125244,1230.337036 
	C2610.803711,1226.939453 2609.363770,1223.647583 2608.315186,1219.851196 
	C2587.983887,1223.610474 2568.719727,1226.819946 2549.620850,1230.820068 
	C2535.397461,1233.799072 2521.384277,1237.783936 2507.285156,1241.351807 
	C2484.457031,1247.128662 2461.609131,1252.831177 2438.820068,1258.758789 
	C2424.721924,1262.425659 2410.716797,1266.450562 2395.240967,1269.934937 
	C2393.473145,1269.018311 2391.581787,1268.281006 2389.955811,1267.158813 
	C2345.516846,1236.486816 2298.894043,1209.427979 2251.215820,1184.220459 
	C2153.441650,1132.527466 2051.009766,1092.538330 1944.202271,1063.866211 
	C1919.796387,1057.314453 1895.104004,1051.830200 1870.358032,1044.019287 
	C1869.305298,1029.414673 1869.048218,1014.700256 1867.049561,1000.226318 
	C1861.259766,958.297729 1852.127319,917.181824 1837.912720,877.123901 
	C1824.189087,838.449280 1808.449585,800.697266 1789.989258,764.124023 
	C1779.351685,743.048889 1766.237305,723.215271 1755.770874,702.064209 
	C1732.509644,655.057007 1703.875732,611.324829 1675.403198,567.492676 
	C1659.133423,542.446228 1642.085327,517.891968 1624.921021,493.443817 
	C1607.921265,469.230133 1590.526733,445.286377 1572.924805,421.505798 
	C1564.216064,409.740173 1554.731567,398.542145 1545.424683,387.229950 
	C1542.747070,383.975555 1539.465576,381.217926 1536.107178,377.881042 
	C1533.439087,380.079803 1531.194580,381.505585 1529.488647,383.413055 
	C1523.941528,389.614960 1518.197998,395.699615 1513.234131,402.354492 
	C1491.943115,430.898743 1470.586304,459.354126 1450.450562,488.792847 
	C1412.983276,543.570312 1378.714233,600.215820 1346.264771,658.025269 
	C1337.627075,673.413574 1329.513794,689.095276 1321.002563,704.555725 
	C1311.212891,722.338562 1300.197632,739.532410 1291.599243,757.865845 
	C1277.612061,787.689026 1264.483032,817.962219 1252.288330,848.562012 
	C1244.053833,869.224304 1237.643799,890.652466 1231.202759,911.975220 
	C1227.651978,923.729675 1225.962402,936.033264 1223.008057,947.984009 
	C1217.961670,968.397095 1214.844482,989.069031 1213.274780,1010.444702 
	C1213.070801,1010.825256 1213.100830,1011.186462 1212.819214,1013.395081 
z"/>
<path fill="#0F622D" opacity="1.000000" stroke="none" 
	d="
M1566.212036,2652.535156 
	C1556.306885,2655.833252 1546.150879,2657.022705 1535.806641,2655.618408 
	C1524.939941,2654.144043 1514.148804,2652.075928 1503.262939,2650.790771 
	C1494.382446,2649.742188 1485.344604,2649.956543 1476.491333,2648.760498 
	C1439.287476,2643.735840 1402.095459,2638.602051 1364.959717,2633.099365 
	C1333.071289,2628.374023 1301.239380,2623.250244 1269.428589,2618.022217 
	C1219.865356,2609.876221 1170.846313,2599.588623 1123.493286,2582.219971 
	C1108.241699,2576.625977 1092.110596,2573.476562 1076.651611,2568.389160 
	C1057.090210,2561.951660 1037.424438,2555.572510 1018.492737,2547.543701 
	C993.116394,2536.781494 968.249390,2524.772217 943.467102,2512.676758 
	C931.875366,2507.019287 920.941589,2499.995361 909.803955,2493.430420 
	C893.195435,2483.640869 876.336792,2474.219727 860.217773,2463.673828 
	C847.813660,2455.558350 836.228821,2446.149658 824.581543,2436.934326 
	C817.872864,2431.626465 811.940491,2425.346191 805.328430,2419.904785 
	C800.361938,2415.817383 796.880920,2409.243408 789.100220,2409.384521 
	C788.561340,2409.394531 787.809509,2408.804443 787.493164,2408.287598 
	C782.525269,2400.170410 772.997070,2397.218262 767.074829,2390.179443 
	C759.055359,2380.647949 750.959045,2371.180664 742.896301,2361.685303 
	C742.249939,2360.924316 741.660583,2360.105957 740.954407,2359.405273 
	C730.376404,2348.909668 719.726135,2338.486572 709.210876,2327.928467 
	C700.337769,2319.019287 691.294189,2310.248047 682.901245,2300.899658 
	C668.714355,2285.097168 654.746033,2269.110840 643.474548,2250.940186 
	C635.603699,2238.251709 625.971924,2226.574219 618.906921,2213.484375 
	C605.199524,2188.088867 592.470642,2162.150146 579.879761,2136.173096 
	C572.780212,2121.525879 566.025208,2106.624512 560.426086,2091.356934 
	C551.169250,2066.114746 542.918762,2040.501831 534.348999,2015.010010 
	C529.063782,1999.288330 523.703064,1983.583984 518.853149,1967.725830 
	C509.915375,1938.501099 500.755249,1909.324585 492.752136,1879.838989 
	C484.235138,1848.460449 477.280548,1816.661011 469.044891,1785.202148 
	C459.428345,1748.468628 454.025146,1710.920166 446.892456,1673.714355 
	C444.404297,1660.735352 444.572632,1647.247314 444.591980,1633.032715 
	C457.254211,1632.701416 468.879303,1633.019043 480.444305,1634.026245 
	C499.948822,1635.724609 519.406494,1637.955322 538.901489,1639.772827 
	C549.136353,1640.727173 559.408752,1641.279663 570.327026,1642.392578 
	C574.156921,1643.763794 577.260803,1645.107666 580.501526,1645.689209 
	C596.894043,1648.630615 613.237366,1652.086914 629.754089,1654.048096 
	C673.133728,1659.198853 715.903320,1667.818726 758.637329,1676.468384 
	C781.772156,1681.151001 804.253723,1688.989380 827.316345,1694.115845 
	C869.651123,1703.526245 911.297852,1715.060059 952.050781,1729.949585 
	C1000.057068,1747.489136 1046.136719,1768.996826 1089.857910,1795.479004 
	C1098.108643,1800.476685 1106.293091,1805.676392 1113.996460,1811.463989 
	C1126.231445,1820.655884 1138.289673,1830.121216 1149.963013,1840.013428 
	C1168.203369,1855.470703 1186.057617,1871.383667 1204.080200,1887.098145 
	C1206.836548,1889.501343 1209.705444,1891.781982 1212.375122,1894.276855 
	C1222.827271,1904.044922 1233.328735,1913.764526 1243.599365,1923.721436 
	C1251.004395,1930.900146 1257.534058,1939.068604 1265.401123,1945.666504 
	C1283.208862,1960.600830 1297.591797,1978.368774 1310.599976,1997.398560 
	C1323.188232,2015.814331 1335.619995,2034.336914 1348.205688,2052.754395 
	C1375.747803,2093.059082 1398.095093,2136.225586 1417.686890,2180.794678 
	C1425.976196,2199.652100 1431.817261,2219.570068 1439.519165,2238.704834 
	C1454.084595,2274.890381 1467.375732,2311.481445 1477.662354,2349.137207 
	C1478.685669,2352.883301 1480.873535,2356.311035 1482.401245,2359.979248 
	C1482.281494,2360.072021 1482.079224,2359.849121 1482.088135,2360.569336 
	C1482.102905,2361.770264 1482.108765,2362.250488 1482.360474,2363.423828 
	C1484.517700,2371.100830 1486.428833,2378.083984 1488.342529,2385.945312 
	C1489.018433,2391.432617 1489.401489,2396.106689 1490.411377,2400.641113 
	C1498.596313,2437.392822 1506.986084,2474.098633 1515.140503,2510.856934 
	C1522.932007,2545.979004 1531.519287,2580.954102 1535.145874,2616.871338 
	C1536.015259,2625.482910 1537.087158,2634.093262 1538.556885,2642.619385 
	C1539.821533,2649.956299 1541.746704,2651.448730 1549.229492,2651.964355 
	C1554.876587,2652.353760 1560.550171,2652.358887 1566.212036,2652.535156 
z"/>
<path fill="#35352A" opacity="1.000000" stroke="none" 
	d="
M1870.543457,1045.854614 
	C1895.104004,1051.830200 1919.796387,1057.314453 1944.202271,1063.866211 
	C2051.009766,1092.538330 2153.441650,1132.527466 2251.215820,1184.220459 
	C2298.894043,1209.427979 2345.516846,1236.486816 2389.955811,1267.158813 
	C2391.581787,1268.281006 2393.473145,1269.018311 2396.080078,1270.749756 
	C2399.803955,1274.209595 2402.435059,1277.216553 2405.612305,1279.444824 
	C2445.725830,1307.578125 2484.987549,1336.828735 2522.087646,1368.865845 
	C2544.018311,1387.803833 2565.506348,1407.253662 2587.318359,1426.330444 
	C2589.960693,1428.641479 2593.384033,1430.059570 2596.445312,1431.891479 
	C2607.507080,1443.366333 2618.609619,1454.802368 2629.619873,1466.326294 
	C2642.253418,1479.549072 2655.245361,1492.464844 2667.280518,1506.214966 
	C2682.032227,1523.069336 2690.833496,1543.170654 2695.494385,1564.958252 
	C2696.788574,1571.007690 2696.444092,1577.436890 2696.571533,1583.697632 
	C2696.679688,1589.011841 2695.681885,1594.431519 2696.401855,1599.634644 
	C2698.464600,1614.542236 2695.750488,1628.732300 2690.450684,1643.976318 
	C2684.751221,1654.212646 2680.405518,1663.620972 2674.813232,1672.218384 
	C2642.241699,1722.295044 2583.229248,1743.833984 2526.813721,1721.874268 
	C2510.380371,1715.477539 2496.496826,1705.425415 2484.175537,1693.077271 
	C2472.685791,1681.562500 2461.426270,1669.818115 2449.631836,1657.650635 
	C2418.449951,1629.108765 2388.559326,1600.072266 2356.760010,1573.303467 
	C2304.458496,1529.276001 2248.214355,1490.611450 2189.164307,1456.071899 
	C2152.917480,1434.870239 2115.624756,1415.712769 2077.523438,1398.101318 
	C2072.704834,1395.874146 2067.868164,1393.297241 2061.926270,1394.985840 
	C2059.422363,1392.924194 2057.445068,1390.982178 2055.070801,1390.043579 
	C2026.039917,1378.567017 1997.182861,1366.592407 1967.818726,1356.031250 
	C1929.986084,1342.423950 1891.273682,1331.557861 1851.576660,1321.638672 
	C1828.437744,1314.640381 1805.679932,1309.279541 1781.779175,1307.315063 
	C1780.019043,1306.305176 1778.652344,1305.718140 1776.623657,1305.032715 
	C1774.643799,1304.697876 1773.326172,1304.461426 1771.547363,1303.971680 
	C1769.390747,1303.786255 1767.695312,1303.854126 1765.266846,1303.942261 
	C1763.069092,1303.906250 1761.604370,1303.850098 1759.880859,1303.458740 
	C1758.420166,1302.652832 1757.218384,1302.182007 1755.259277,1301.625488 
	C1752.498535,1301.204834 1750.494995,1300.869873 1748.086182,1300.271362 
	C1745.790161,1299.921753 1743.899536,1299.835693 1741.339844,1299.652588 
	C1738.450195,1299.172607 1736.229736,1298.789551 1733.558350,1298.132080 
	C1731.407227,1297.835938 1729.706787,1297.814331 1727.290894,1297.705200 
	C1723.719971,1297.191284 1720.864746,1296.764893 1717.645752,1296.124146 
	C1716.188599,1295.912964 1715.095215,1295.916138 1713.145508,1295.860596 
	C1690.862427,1293.924805 1669.435791,1292.047729 1647.421631,1289.892822 
	C1643.895386,1289.626343 1640.956421,1289.637451 1637.160645,1289.620239 
	C1626.203735,1289.081543 1616.103516,1288.571167 1605.305664,1287.802734 
	C1599.741333,1287.621948 1594.874634,1287.699219 1589.070312,1287.777588 
	C1573.419189,1287.810059 1558.705811,1287.841431 1543.389404,1287.647461 
	C1539.857666,1287.626221 1536.929077,1287.830200 1533.080078,1288.067383 
	C1521.431274,1288.630859 1510.702759,1289.161133 1499.366943,1289.471436 
	C1495.839600,1289.585815 1492.919556,1289.920166 1489.131958,1290.315186 
	C1467.505127,1292.185669 1446.745972,1293.995605 1425.587646,1295.680054 
	C1424.125854,1295.778442 1423.062866,1296.002319 1421.254517,1296.342041 
	C1417.002808,1296.921753 1413.496460,1297.385742 1409.592041,1297.712769 
	C1408.129883,1297.807983 1407.065918,1298.040283 1405.288574,1298.391113 
	C1401.714355,1298.966187 1398.853516,1299.422729 1395.593262,1299.748047 
	C1394.129639,1299.842896 1393.065674,1300.068970 1391.286621,1300.409668 
	C1387.709351,1300.952881 1384.847168,1301.381592 1381.576904,1301.692383 
	C1380.118042,1301.886353 1379.067261,1302.197998 1377.356934,1302.637695 
	C1375.369385,1302.970093 1374.041382,1303.174805 1372.090820,1303.268555 
	C1369.484253,1303.606445 1367.500366,1304.055298 1364.823975,1304.650146 
	C1362.740601,1305.054932 1361.349609,1305.313843 1359.550171,1305.466797 
	C1358.096436,1305.680298 1357.051025,1305.999634 1355.339111,1306.451172 
	C1352.442505,1306.981079 1350.212402,1307.378662 1347.568848,1307.672119 
	C1345.996704,1308.208374 1344.838257,1308.848633 1342.857178,1309.646973 
	C1338.486694,1310.490112 1334.917847,1311.082520 1331.393921,1311.875366 
	C1302.715820,1318.327271 1274.027710,1324.737427 1245.398438,1331.400269 
	C1242.027954,1332.184814 1238.994873,1334.419067 1235.049316,1336.098389 
	C1176.156128,1352.234497 1119.927124,1373.471191 1065.031616,1398.312866 
	C1062.505371,1399.456177 1060.608398,1401.989990 1057.716797,1403.710449 
	C1051.681519,1400.818359 1046.371216,1398.044922 1041.010132,1395.373413 
	C1013.317200,1381.573975 986.038757,1366.837891 957.788086,1354.292114 
	C930.136719,1342.012573 901.246582,1332.551880 873.349548,1320.788208 
	C845.987366,1309.249878 818.049622,1299.589355 789.703552,1290.877441 
	C772.867798,1285.703247 756.324829,1279.576416 739.650208,1273.878052 
	C782.114746,1243.816772 826.855957,1217.510620 872.495056,1192.607788 
	C917.272217,1168.175171 963.090271,1145.962769 1010.262024,1126.605225 
	C1071.927979,1101.299805 1134.836426,1079.577515 1199.277344,1062.393677 
	C1203.618530,1061.235962 1208.796753,1061.069336 1210.991455,1055.549561 
	C1213.011475,1061.099487 1216.916626,1059.538330 1220.446045,1058.800537 
	C1238.982788,1054.926514 1257.468018,1050.789673 1276.053589,1047.167725 
	C1301.748047,1042.160156 1327.515869,1037.530029 1353.864990,1032.775146 
	C1355.651855,1032.503052 1356.826172,1032.194214 1358.818848,1031.774902 
	C1373.763916,1029.854858 1387.890747,1028.045288 1402.416016,1026.360107 
	C1403.876343,1026.261475 1404.938110,1026.038330 1406.837158,1025.731689 
	C1419.121094,1024.500977 1430.567871,1023.353760 1442.598267,1022.416748 
	C1446.277588,1022.217957 1449.373169,1021.809021 1453.321289,1021.280884 
	C1458.783203,1020.789490 1463.392334,1020.417236 1468.393066,1020.189148 
	C1469.856934,1020.172668 1470.929077,1020.011963 1472.869751,1019.791443 
	C1481.167480,1019.255554 1488.596802,1018.779480 1496.782104,1018.550659 
	C1505.253418,1019.489441 1513.107544,1021.446350 1521.107666,1016.242981 
	C1553.343628,1016.149170 1584.656128,1016.126831 1616.542969,1016.554321 
	C1625.876709,1021.257385 1634.925659,1019.852783 1644.820068,1018.416565 
	C1652.438477,1018.901550 1659.214844,1019.349609 1666.365723,1019.985291 
	C1667.826782,1020.120911 1668.913574,1020.068909 1670.843018,1020.047791 
	C1677.118896,1020.590942 1682.552368,1021.103271 1688.605469,1021.923584 
	C1692.809814,1022.291504 1696.394409,1022.351501 1700.803223,1022.463013 
	C1707.085083,1023.017273 1712.542847,1023.519958 1718.364990,1024.224365 
	C1719.809570,1024.441284 1720.889893,1024.456543 1722.722412,1024.548828 
	C1726.981812,1025.053223 1730.489014,1025.480713 1734.360352,1026.114746 
	C1735.810791,1026.327393 1736.896973,1026.333374 1738.767822,1026.386963 
	C1743.701660,1026.954956 1747.850830,1027.475220 1752.561890,1028.225464 
	C1754.327271,1028.538452 1755.530762,1028.621704 1757.552124,1028.819336 
	C1765.576904,1029.889038 1772.783691,1030.844360 1780.616577,1032.081787 
	C1783.047363,1032.561035 1784.852051,1032.757812 1787.326416,1033.041016 
	C1789.327881,1033.346191 1790.660034,1033.565186 1792.447754,1034.038818 
	C1794.593140,1034.340454 1796.282715,1034.387451 1798.643066,1034.543213 
	C1801.541016,1035.064453 1803.768311,1035.476807 1806.352539,1036.109985 
	C1807.795532,1036.373413 1808.881592,1036.415894 1810.640869,1036.542358 
	C1813.540527,1037.019287 1815.766846,1037.412231 1818.348145,1038.030762 
	C1819.791260,1038.324219 1820.879761,1038.391846 1822.658936,1038.582031 
	C1824.723022,1038.993774 1826.096313,1039.282959 1827.792114,1039.809082 
	C1829.403931,1040.145508 1830.693115,1040.245117 1832.678711,1040.436035 
	C1834.753052,1040.797485 1836.131226,1041.067505 1837.987061,1041.685303 
	C1840.327515,1042.670532 1842.190430,1043.307983 1844.883057,1043.972900 
	C1853.989746,1044.618530 1862.266602,1045.236572 1870.543457,1045.854614 
z"/>
<path fill="#0F622D" opacity="1.000000" stroke="none" 
	d="
M2450.065430,1658.174805 
	C2461.426270,1669.818115 2472.685791,1681.562500 2484.175537,1693.077271 
	C2496.496826,1705.425415 2510.380371,1715.477539 2526.813721,1721.874268 
	C2583.229248,1743.833984 2642.241699,1722.295044 2674.813232,1672.218384 
	C2680.405518,1663.620972 2684.751221,1654.212646 2690.132812,1644.633057 
	C2689.347412,1655.309204 2688.574219,1666.608521 2686.748535,1677.735352 
	C2683.847412,1695.419067 2680.578613,1713.058716 2676.846436,1730.585083 
	C2672.968750,1748.794189 2668.375244,1766.851318 2664.059570,1784.966675 
	C2659.286621,1805.003662 2655.132080,1825.217529 2649.523682,1845.019043 
	C2641.203857,1874.395874 2632.104248,1903.560791 2622.843262,1932.658936 
	C2614.990479,1957.332764 2606.401123,1981.771606 2598.208984,2006.338257 
	C2591.167236,2027.455933 2584.220703,2048.605713 2577.242188,2069.744385 
	C2570.354736,2090.607666 2560.253174,2110.059326 2550.841797,2129.811523 
	C2543.694092,2144.814209 2536.941162,2160.033691 2529.123047,2174.681885 
	C2513.637451,2203.696777 2496.356445,2231.580566 2476.524902,2257.937012 
	C2464.336670,2274.135254 2451.594727,2289.674316 2436.991943,2303.722168 
	C2427.705322,2312.656250 2418.768311,2321.953857 2409.484863,2330.891357 
	C2398.737793,2341.237793 2387.453857,2351.045898 2377.014893,2361.687744 
	C2367.355713,2371.534668 2358.547363,2382.213135 2349.259277,2392.429688 
	C2347.504395,2394.360352 2345.511963,2396.582520 2343.185791,2397.386230 
	C2337.260742,2399.433350 2333.097168,2403.218506 2329.600830,2408.208984 
	C2328.554688,2409.702637 2326.538574,2410.534912 2324.926758,2411.610107 
	C2319.720459,2415.083008 2313.833008,2417.838623 2309.393799,2422.104736 
	C2291.846680,2438.968262 2272.492676,2453.451904 2251.531006,2465.571777 
	C2220.763428,2483.361084 2189.932617,2501.144287 2158.280518,2517.264893 
	C2136.458496,2528.378906 2113.281006,2536.869629 2090.558105,2546.162598 
	C2074.875488,2552.576416 2059.053955,2558.700928 2043.064331,2564.296875 
	C2033.057739,2567.798584 2022.576538,2569.919922 2012.390625,2572.938477 
	C1989.487915,2579.726318 1966.742920,2587.070312 1943.730591,2593.456055 
	C1925.487793,2598.518311 1907.042603,2602.970459 1888.506836,2606.826172 
	C1866.720581,2611.357910 1844.793213,2615.282471 1822.828613,2618.867188 
	C1797.922119,2622.931396 1772.891724,2626.229980 1747.943481,2630.045898 
	C1727.906128,2633.110840 1707.921875,2636.520752 1687.891846,2639.635742 
	C1678.383789,2641.114258 1668.848511,2642.489990 1659.283081,2643.515137 
	C1637.498291,2645.850098 1615.687256,2647.939453 1593.608643,2649.761719 
	C1596.473755,2648.305664 1599.595459,2647.147461 1602.764160,2646.137451 
	C1636.719727,2635.309814 1663.717407,2615.331787 1683.244507,2585.354492 
	C1713.597046,2538.759033 1711.011841,2474.541748 1677.223511,2430.415527 
	C1659.028931,2406.654053 1635.727417,2390.319092 1607.720703,2380.226807 
	C1603.482788,2378.699463 1599.733154,2375.816895 1595.828613,2372.920166 
	C1596.576782,2370.230957 1597.254028,2368.182373 1598.345581,2365.533203 
	C1600.423462,2360.231201 1602.360596,2355.606934 1603.706665,2350.816162 
	C1613.180420,2317.097900 1624.508545,2284.055664 1638.662842,2251.982666 
	C1641.723755,2245.046631 1643.583496,2237.580322 1646.769287,2230.468506 
	C1711.877197,2243.014893 1769.518677,2269.964600 1821.223511,2310.094238 
	C1840.250122,2324.861328 1856.978882,2341.989014 1874.105957,2358.772217 
	C1898.326294,2382.506104 1927.320923,2395.443604 1961.550293,2393.322754 
	C1996.236694,2391.173584 2024.559814,2375.992676 2046.418945,2348.656982 
	C2085.337646,2299.987305 2083.648193,2225.200684 2041.722534,2179.157227 
	C2012.949707,2147.558594 1981.125244,2119.192627 1946.699585,2093.845947 
	C1897.328857,2057.496094 1844.138672,2028.134644 1786.465820,2007.063721 
	C1783.391113,2005.940186 1780.608521,2004.017212 1777.956909,2001.780640 
	C1789.307373,1982.354248 1804.208862,1966.842773 1819.968750,1952.107544 
	C1829.167358,1943.507080 1839.241943,1935.788574 1847.978149,1926.759521 
	C1867.642700,1906.435913 1890.078735,1889.350220 1911.322876,1870.869019 
	C1918.742432,1864.414551 1925.293457,1856.961670 1932.903564,1850.176025 
	C1949.383423,1858.937744 1965.496582,1866.987427 1980.966431,1876.126221 
	C2043.494507,1913.064087 2100.875488,1956.715332 2151.880615,2008.562988 
	C2161.458740,2018.299438 2170.792969,2028.307861 2180.808350,2037.576294 
	C2227.455566,2080.744385 2298.685791,2079.494141 2343.097168,2031.155884 
	C2390.858398,1979.171509 2389.724854,1900.005005 2341.140381,1848.613037 
	C2302.888916,1808.151489 2262.266357,1770.196167 2218.229248,1735.993652 
	C2211.150635,1730.495850 2204.608643,1724.306885 2198.438477,1718.010986 
	C2212.470459,1713.705933 2225.777588,1709.402832 2239.318115,1706.041260 
	C2263.546143,1700.025879 2287.899902,1694.511719 2312.229492,1688.911255 
	C2335.891846,1683.464233 2359.526611,1677.869629 2383.291748,1672.905884 
	C2402.515137,1668.890869 2421.933594,1665.818115 2441.215088,1662.068115 
	C2444.300781,1661.467896 2447.122070,1659.506836 2450.065430,1658.174805 
z"/>
<path fill="#15853D" opacity="1.000000" stroke="none" 
	d="
M738.899048,1273.830322 
	C756.324829,1279.576416 772.867798,1285.703247 789.703552,1290.877441 
	C818.049622,1299.589355 845.987366,1309.249878 873.349548,1320.788208 
	C901.246582,1332.551880 930.136719,1342.012573 957.788086,1354.292114 
	C986.038757,1366.837891 1013.317200,1381.573975 1041.010132,1395.373413 
	C1046.371216,1398.044922 1051.681519,1400.818359 1058.260986,1404.063721 
	C1062.004395,1406.222534 1064.448486,1407.951660 1067.008911,1409.486572 
	C1078.073730,1416.119507 1089.553223,1422.141968 1100.160645,1429.435669 
	C1112.708862,1438.064331 1124.495361,1447.798096 1136.647583,1457.005859 
	C1154.901855,1470.836792 1171.761597,1486.267700 1187.399902,1502.922485 
	C1205.071045,1521.742188 1222.035156,1541.225586 1239.588867,1561.050903 
	C1256.503418,1581.949219 1272.983276,1602.344604 1289.810059,1622.449707 
	C1307.127319,1643.140991 1323.189819,1664.666138 1335.493042,1688.768799 
	C1350.889404,1718.931274 1366.074097,1749.201782 1381.457275,1779.371094 
	C1382.765137,1781.936157 1384.878418,1784.090454 1386.722412,1787.206665 
	C1387.930542,1791.103271 1388.985352,1794.246948 1390.144653,1797.351562 
	C1397.806519,1817.871460 1406.891113,1837.984619 1412.867432,1858.983032 
	C1424.225098,1898.887695 1433.808350,1939.297241 1444.123535,1980.332520 
	C1444.233276,1982.157837 1444.239014,1983.175049 1444.478638,1984.133789 
	C1454.015503,2022.282471 1458.822632,2061.232422 1463.326050,2100.169678 
	C1467.600708,2137.131348 1470.428955,2174.258789 1474.108521,2211.291748 
	C1474.890991,2219.165283 1476.603638,2226.946777 1477.875366,2235.633057 
	C1478.821655,2250.032471 1479.734741,2263.572754 1480.750000,2277.105469 
	C1482.228638,2296.817139 1485.154663,2316.468262 1482.484741,2336.324707 
	C1481.960815,2340.220459 1482.598877,2344.266602 1482.620117,2348.243652 
	C1482.640991,2352.124268 1482.558228,2356.005615 1482.520996,2359.886475 
	C1480.873535,2356.311035 1478.685669,2352.883301 1477.662354,2349.137207 
	C1467.375732,2311.481445 1454.084595,2274.890381 1439.519165,2238.704834 
	C1431.817261,2219.570068 1425.976196,2199.652100 1417.686890,2180.794678 
	C1398.095093,2136.225586 1375.747803,2093.059082 1348.205688,2052.754395 
	C1335.619995,2034.336914 1323.188232,2015.814331 1310.599976,1997.398560 
	C1297.591797,1978.368774 1283.208862,1960.600830 1265.401123,1945.666504 
	C1257.534058,1939.068604 1251.004395,1930.900146 1243.599365,1923.721436 
	C1233.328735,1913.764526 1222.827271,1904.044922 1212.375122,1894.276855 
	C1209.705444,1891.781982 1206.836548,1889.501343 1204.080200,1887.098145 
	C1186.057617,1871.383667 1168.203369,1855.470703 1149.963013,1840.013428 
	C1138.289673,1830.121216 1126.231445,1820.655884 1113.996460,1811.463989 
	C1106.293091,1805.676392 1098.108643,1800.476685 1089.857910,1795.479004 
	C1046.136719,1768.996826 1000.057068,1747.489136 952.050781,1729.949585 
	C911.297852,1715.060059 869.651123,1703.526245 827.316345,1694.115845 
	C804.253723,1688.989380 781.772156,1681.151001 758.637329,1676.468384 
	C715.903320,1667.818726 673.133728,1659.198853 629.754089,1654.048096 
	C613.237366,1652.086914 596.894043,1648.630615 580.501526,1645.689209 
	C577.260803,1645.107666 574.156921,1643.763794 570.220337,1641.602417 
	C565.827759,1620.176758 562.103333,1599.937500 558.603760,1579.659668 
	C552.224609,1542.695679 546.015320,1505.702393 539.652710,1468.735596 
	C537.969238,1458.954102 535.984802,1449.224487 534.138550,1439.471069 
	C530.798157,1407.899780 526.908813,1376.373901 524.282715,1344.743408 
	C521.983765,1317.052734 521.104065,1289.244385 519.644531,1259.999023 
	C519.621033,1257.785767 519.550415,1257.061523 519.479797,1256.337158 
	C519.538879,1249.645752 519.598022,1242.954346 519.697083,1234.541016 
	C519.661682,1232.270142 519.586243,1231.721313 519.510864,1231.172485 
	C519.479675,1230.618042 519.464661,1230.063110 519.596985,1228.264648 
	C519.782532,1226.467651 519.836914,1225.913940 519.891357,1225.360107 
	C520.267273,1222.569946 520.973145,1220.000732 524.505798,1220.000610 
	C527.156250,1220.000488 529.888428,1219.803467 532.444458,1220.348755 
	C556.062988,1225.386719 579.876099,1229.718750 603.195923,1235.902832 
	C639.399109,1245.503418 675.248901,1256.433716 711.274719,1266.708252 
	C720.180603,1269.248169 729.187439,1271.433960 738.899048,1273.830322 
M1045.087891,1519.761841 
	C1036.307251,1517.813843 1027.483398,1516.037109 1018.765869,1513.838867 
	C1014.933044,1512.872437 1011.009888,1511.549683 1007.666931,1509.506470 
	C1001.093445,1505.488647 1001.395020,1499.418213 1007.958374,1495.373901 
	C1018.431396,1488.920410 1033.383179,1492.346191 1040.677856,1502.552979 
	C1042.265137,1504.773926 1044.918945,1507.609863 1047.202637,1507.723267 
	C1058.496582,1508.284912 1069.831909,1508.107910 1081.151245,1508.017822 
	C1085.356689,1507.984375 1087.031738,1505.208496 1086.716309,1501.344971 
	C1086.501465,1498.711548 1085.959351,1496.052856 1085.172852,1493.526978 
	C1081.137695,1480.567383 1072.437866,1471.494629 1060.055908,1466.744141 
	C1033.156250,1456.423950 1006.004456,1456.744385 979.116394,1467.089111 
	C975.153137,1468.614014 971.484314,1471.208862 968.087585,1473.836670 
	C961.316650,1479.074463 956.809143,1485.977905 954.419556,1494.251465 
	C947.966187,1516.595215 956.708679,1537.093506 978.117004,1546.319702 
	C989.027283,1551.021851 1000.968750,1553.338989 1012.457214,1556.689331 
	C1019.793152,1558.828613 1027.253418,1560.596680 1034.461792,1563.096558 
	C1038.334351,1564.439575 1041.544678,1567.326172 1040.777466,1572.142578 
	C1040.045776,1576.735107 1036.457275,1579.008301 1032.346802,1579.505615 
	C1026.428467,1580.221924 1020.409241,1580.360229 1014.436584,1580.312012 
	C1006.035278,1580.244141 999.446716,1576.972290 996.859558,1568.350098 
	C995.305603,1563.171021 991.636230,1561.989868 986.903015,1562.019897 
	C977.908447,1562.076904 968.907776,1561.833008 959.919739,1562.081299 
	C951.160217,1562.323364 949.582703,1564.440186 951.045837,1573.385498 
	C954.304626,1593.309204 966.394836,1605.647217 985.296875,1610.965942 
	C1006.783264,1617.011841 1028.750977,1617.789551 1050.563354,1612.812500 
	C1057.567017,1611.214233 1064.668701,1608.309082 1070.669678,1604.386475 
	C1087.118042,1593.634277 1092.666260,1577.328003 1090.885620,1558.445068 
	C1089.255981,1541.164673 1078.218140,1531.190063 1062.862183,1525.296143 
	C1057.589355,1523.272217 1052.083984,1521.853760 1045.087891,1519.761841 
M753.409668,1612.399536 
	C759.402649,1612.401001 765.405823,1612.620117 771.385742,1612.341553 
	C777.159607,1612.072388 783.309998,1613.819336 789.484375,1609.525146 
	C788.422119,1605.697632 787.620728,1601.870483 786.307373,1598.228027 
	C776.821533,1571.919800 767.238708,1545.646362 757.673157,1519.366943 
	C751.751648,1503.098633 745.619202,1486.903809 739.966248,1470.543091 
	C737.768005,1464.181152 734.012085,1461.661499 727.367798,1461.825439 
	C714.723755,1462.137329 702.061401,1462.139893 689.417114,1461.836182 
	C682.631104,1461.673218 678.952026,1464.683594 676.966003,1470.881104 
	C675.036987,1476.900513 672.703552,1482.790771 670.534119,1488.732788 
	C657.060669,1525.635986 643.549377,1562.525391 630.162415,1599.459961 
	C628.884888,1602.984741 628.378235,1606.788818 627.280212,1611.455811 
	C632.013000,1611.851929 635.244019,1612.309814 638.480957,1612.356079 
	C646.469910,1612.470215 654.461975,1612.445557 662.452148,1612.384888 
	C674.294983,1612.295166 674.294678,1612.261475 678.639038,1600.669556 
	C681.601257,1592.765503 682.324951,1592.073120 691.001038,1591.925781 
	C701.984863,1591.739258 712.976135,1591.745239 723.960510,1591.911377 
	C733.069275,1592.049072 734.153503,1592.451172 736.686890,1601.369385 
	C738.955139,1609.354492 743.027649,1613.510864 753.409668,1612.399536 
M906.959290,1498.110352 
	C912.618469,1498.064331 918.293518,1498.266113 923.932678,1497.906250 
	C930.170349,1497.508057 931.637390,1496.141846 931.955444,1490.084473 
	C932.303955,1483.445190 932.295410,1476.761230 931.970764,1470.119751 
	C931.661621,1463.794434 930.344788,1462.655029 924.217285,1462.043823 
	C921.906128,1461.812988 919.560547,1461.890869 917.230652,1461.890137 
	C886.600403,1461.881348 855.970154,1461.860474 825.339905,1461.893433 
	C810.423340,1461.909424 810.234009,1462.086304 810.221375,1476.916382 
	C810.187439,1516.868896 810.207520,1556.821411 810.213379,1596.773926 
	C810.213684,1599.104004 810.143127,1601.445435 810.337708,1603.761963 
	C810.902771,1610.487427 812.112854,1611.998779 818.826782,1612.212158 
	C828.804260,1612.529419 838.804932,1612.531494 848.784058,1612.251343 
	C856.658142,1612.030151 858.046997,1610.591675 858.344238,1602.707764 
	C858.695374,1593.396362 858.396301,1584.060547 858.746887,1574.749023 
	C859.349548,1558.743774 859.662842,1558.544800 875.296265,1558.485840 
	C887.614685,1558.439331 899.937317,1558.617188 912.250122,1558.340332 
	C920.139526,1558.162964 921.441528,1556.647705 921.930237,1548.906860 
	C922.118652,1545.921021 922.037903,1542.916138 922.031006,1539.920166 
	C921.994934,1524.275757 921.853210,1524.119141 906.622437,1524.064331 
	C893.638123,1524.017700 880.650146,1524.189331 867.670715,1523.923950 
	C860.390137,1523.775269 859.140015,1522.239380 858.591370,1514.964844 
	C858.466492,1513.308716 858.495178,1511.636353 858.530457,1509.973145 
	C858.748413,1499.689575 859.927124,1498.332642 870.013245,1498.179321 
	C881.663452,1498.002075 893.318176,1498.120605 906.959290,1498.110352 
z"/>
<path fill="#48A067" opacity="1.000000" stroke="none" 
	d="
M1615.968506,1016.104492 
	C1584.656128,1016.126831 1553.343628,1016.149170 1520.190796,1016.144165 
	C1510.908936,1016.845642 1503.467529,1017.574585 1496.026123,1018.303467 
	C1488.596802,1018.779480 1481.167480,1019.255554 1472.478394,1019.652100 
	C1470.146240,1019.730042 1469.073975,1019.887512 1468.001587,1020.044983 
	C1463.392334,1020.417236 1458.783203,1020.789490 1452.567871,1021.099121 
	C1447.979492,1021.426453 1444.996948,1021.816467 1442.014526,1022.206482 
	C1430.567871,1023.353760 1419.121094,1024.500977 1406.439331,1025.602417 
	C1404.141968,1025.782837 1403.079834,1026.009277 1402.017578,1026.235718 
	C1387.890747,1028.045288 1373.763916,1029.854858 1358.413330,1031.653076 
	C1355.877197,1032.007080 1354.564697,1032.372681 1353.252319,1032.738281 
	C1327.515869,1037.530029 1301.748047,1042.160156 1276.053589,1047.167725 
	C1257.468018,1050.789673 1238.982788,1054.926514 1220.446045,1058.800537 
	C1216.916626,1059.538330 1213.011475,1061.099487 1211.348633,1054.998291 
	C1211.676270,1040.662476 1212.247681,1027.028809 1213.288086,1012.269287 
	C1213.932617,1010.769470 1213.913086,1010.405579 1213.698242,1010.051880 
	C1214.844482,989.069031 1217.961670,968.397095 1223.008057,947.984009 
	C1225.962402,936.033264 1227.651978,923.729675 1231.202759,911.975220 
	C1237.643799,890.652466 1244.053833,869.224304 1252.288330,848.562012 
	C1264.483032,817.962219 1277.612061,787.689026 1291.599243,757.865845 
	C1300.197632,739.532410 1311.212891,722.338562 1321.002563,704.555725 
	C1329.513794,689.095276 1337.627075,673.413574 1346.264771,658.025269 
	C1378.714233,600.215820 1412.983276,543.570312 1450.450562,488.792847 
	C1470.586304,459.354126 1491.943115,430.898743 1513.234131,402.354492 
	C1518.197998,395.699615 1523.941528,389.614960 1529.488647,383.413055 
	C1531.194580,381.505585 1533.439087,380.079803 1536.107178,377.881042 
	C1539.465576,381.217926 1542.747070,383.975555 1545.424683,387.229950 
	C1554.731567,398.542145 1564.216064,409.740173 1572.924805,421.505798 
	C1590.526733,445.286377 1607.921265,469.230133 1624.921021,493.443817 
	C1642.085327,517.891968 1659.133423,542.446228 1675.403198,567.492676 
	C1703.875732,611.324829 1732.509644,655.057007 1755.770874,702.064209 
	C1766.237305,723.215271 1779.351685,743.048889 1789.989258,764.124023 
	C1808.449585,800.697266 1824.189087,838.449280 1837.912720,877.123901 
	C1852.127319,917.181824 1861.259766,958.297729 1867.049561,1000.226318 
	C1869.048218,1014.700256 1869.305298,1029.414673 1870.450684,1044.937012 
	C1862.266602,1045.236572 1853.989746,1044.618530 1844.423096,1043.557373 
	C1841.258545,1042.522217 1839.383911,1041.929810 1837.509277,1041.337524 
	C1836.131226,1041.067505 1834.753052,1040.797485 1832.149048,1040.190430 
	C1829.771851,1039.759644 1828.620728,1039.665771 1827.469482,1039.572021 
	C1826.096313,1039.282959 1824.723022,1038.993774 1822.311279,1038.339233 
	C1820.179565,1037.917603 1819.086426,1037.861328 1817.993286,1037.805054 
	C1815.766846,1037.412231 1813.540527,1037.019287 1810.290039,1036.308350 
	C1808.175903,1035.956543 1807.085815,1035.922729 1805.995728,1035.889038 
	C1803.768311,1035.476807 1801.541016,1035.064453 1798.192505,1034.282959 
	C1795.378296,1033.870483 1793.685181,1033.827271 1791.992065,1033.784058 
	C1790.660034,1033.565186 1789.327881,1033.346191 1786.925781,1032.732056 
	C1783.900635,1032.157715 1781.945679,1031.978638 1779.990601,1031.799561 
	C1772.783691,1030.844360 1765.576904,1029.889038 1757.209961,1028.580322 
	C1754.699829,1028.149780 1753.349976,1028.072632 1752.000000,1027.995605 
	C1747.850830,1027.475220 1743.701660,1026.954956 1738.405762,1026.175415 
	C1736.171387,1025.913452 1735.083740,1025.910767 1733.996094,1025.908081 
	C1730.489014,1025.480713 1726.981812,1025.053223 1722.364746,1024.332275 
	C1720.170044,1024.033325 1719.085327,1024.027954 1718.000610,1024.022705 
	C1712.542847,1023.519958 1707.085083,1023.017273 1700.179443,1022.173096 
	C1695.149658,1021.759583 1691.567627,1021.687622 1687.985718,1021.615601 
	C1682.552368,1021.103271 1677.118896,1020.590942 1670.467041,1019.867065 
	C1668.162842,1019.702942 1667.077026,1019.750305 1665.991333,1019.797668 
	C1659.214844,1019.349609 1652.438477,1018.901550 1644.069824,1018.087585 
	C1633.641235,1017.182617 1624.804932,1016.643616 1615.968506,1016.104492 
z"/>
<path fill="#2B2B2B" opacity="1.000000" stroke="none" 
	d="
M1595.757690,2373.560791 
	C1599.733154,2375.816895 1603.482788,2378.699463 1607.720703,2380.226807 
	C1635.727417,2390.319092 1659.028931,2406.654053 1677.223511,2430.415527 
	C1711.011841,2474.541748 1713.597046,2538.759033 1683.244507,2585.354492 
	C1663.717407,2615.331787 1636.719727,2635.309814 1602.764160,2646.137451 
	C1599.595459,2647.147461 1596.473755,2648.305664 1592.684326,2649.719238 
	C1584.022705,2650.817139 1576.006958,2651.590820 1567.101685,2652.449707 
	C1560.550171,2652.358887 1554.876587,2652.353760 1549.229492,2651.964355 
	C1541.746704,2651.448730 1539.821533,2649.956299 1538.556885,2642.619385 
	C1537.087158,2634.093262 1536.015259,2625.482910 1535.145874,2616.871338 
	C1531.519287,2580.954102 1522.932007,2545.979004 1515.140503,2510.856934 
	C1506.986084,2474.098633 1498.596313,2437.392822 1490.411377,2400.641113 
	C1489.401489,2396.106689 1489.018433,2391.432617 1489.089844,2386.160645 
	C1493.318115,2384.696533 1496.997070,2384.366455 1500.252808,2383.016113 
	C1519.783936,2374.915283 1539.911011,2370.446533 1561.183472,2371.828369 
	C1572.697144,2372.576172 1584.232300,2372.994141 1595.757690,2373.560791 
z"/>
<path fill="#15843D" opacity="1.000000" stroke="none" 
	d="
M2596.526367,1431.147461 
	C2593.384033,1430.059570 2589.960693,1428.641479 2587.318359,1426.330444 
	C2565.506348,1407.253662 2544.018311,1387.803833 2522.087646,1368.865845 
	C2484.987549,1336.828735 2445.725830,1307.578125 2405.612305,1279.444824 
	C2402.435059,1277.216553 2399.803955,1274.209595 2396.794434,1270.939697 
	C2410.716797,1266.450562 2424.721924,1262.425659 2438.820068,1258.758789 
	C2461.609131,1252.831177 2484.457031,1247.128662 2507.285156,1241.351807 
	C2521.384277,1237.783936 2535.397461,1233.799072 2549.620850,1230.820068 
	C2568.719727,1226.819946 2587.983887,1223.610474 2608.315186,1219.851196 
	C2609.363770,1223.647583 2610.803711,1226.939453 2611.125244,1230.337036 
	C2613.261719,1252.930298 2610.396729,1275.418091 2609.367920,1297.944580 
	C2608.928467,1307.563599 2608.610596,1317.200928 2607.730713,1326.783569 
	C2606.671387,1338.318848 2604.898193,1349.787231 2603.746094,1361.315674 
	C2601.671875,1382.064697 2599.849854,1402.838867 2597.862793,1423.596680 
	C2597.643799,1425.884766 2597.035400,1428.135498 2596.526367,1431.147461 
z"/>
<path fill="#35352A" opacity="1.000000" stroke="none" 
	d="
M533.852295,1440.130615 
	C535.984802,1449.224487 537.969238,1458.954102 539.652710,1468.735596 
	C546.015320,1505.702393 552.224609,1542.695679 558.603760,1579.659668 
	C562.103333,1599.937500 565.827759,1620.176758 569.557495,1641.223389 
	C559.408752,1641.279663 549.136353,1640.727173 538.901489,1639.772827 
	C519.406494,1637.955322 499.948822,1635.724609 480.444305,1634.026245 
	C468.879303,1633.019043 457.254211,1632.701416 444.706238,1632.117798 
	C443.148163,1613.250732 441.442535,1594.294312 442.224701,1575.441040 
	C443.096405,1554.430664 451.816254,1535.499512 462.997803,1517.908325 
	C474.334106,1500.073730 490.254547,1486.187256 504.584930,1470.948486 
	C514.135498,1460.792358 523.898254,1450.835815 533.852295,1440.130615 
z"/>
<path fill="#2B2B2B" opacity="1.000000" stroke="none" 
	d="
M519.328552,1256.643799 
	C519.550415,1257.061523 519.621033,1257.785767 519.595703,1259.044312 
	C519.392273,1258.702515 519.284790,1257.826538 519.328552,1256.643799 
z"/>
<path fill="#3C6445" opacity="1.000000" stroke="none" 
	d="
M1213.486572,1010.248291 
	C1213.913086,1010.405579 1213.932617,1010.769470 1213.560791,1011.335938 
	C1213.100830,1011.186462 1213.070801,1010.825256 1213.486572,1010.248291 
z"/>
<path fill="#2B2B2B" opacity="1.000000" stroke="none" 
	d="
M519.648254,1225.734375 
	C519.836914,1225.913940 519.782532,1226.467651 519.589844,1227.848267 
	C519.436035,1227.819580 519.420593,1226.964233 519.648254,1225.734375 
z"/>
<path fill="#2B2B2B" opacity="1.000000" stroke="none" 
	d="
M519.327576,1231.572998 
	C519.586243,1231.721313 519.661682,1232.270142 519.664185,1233.648071 
	C519.442322,1233.642700 519.293335,1232.808105 519.327576,1231.572998 
z"/>
<path fill="#000100" opacity="1.000000" stroke="none" 
	d="
M1595.828613,2372.920166 
	C1584.232300,2372.994141 1572.697144,2372.576172 1561.183472,2371.828369 
	C1539.911011,2370.446533 1519.783936,2374.915283 1500.252808,2383.016113 
	C1496.997070,2384.366455 1493.318115,2384.696533 1489.087402,2385.282715 
	C1486.428833,2378.083984 1484.517700,2371.100830 1482.692627,2363.085938 
	C1482.920898,2361.775391 1483.254883,2361.389404 1483.169800,2361.236328 
	C1482.887451,2360.728760 1482.454468,2360.305176 1482.079224,2359.849121 
	C1482.079224,2359.849121 1482.281494,2360.072021 1482.401245,2359.979248 
	C1482.558228,2356.005615 1482.640991,2352.124268 1482.620117,2348.243652 
	C1482.598877,2344.266602 1481.960815,2340.220459 1482.484741,2336.324707 
	C1485.154663,2316.468262 1482.228638,2296.817139 1480.750000,2277.105469 
	C1479.734741,2263.572754 1478.821655,2250.032471 1478.698730,2235.430176 
	C1516.148193,2225.921143 1553.228394,2222.580078 1590.760620,2224.220459 
	C1595.628662,2224.433350 1600.900757,2223.528564 1604.166504,2229.505127 
	C1603.268799,2242.221191 1602.963013,2254.179932 1601.324219,2265.953369 
	C1596.689087,2299.254639 1597.910522,2332.704102 1597.931396,2366.133789 
	C1597.254028,2368.182373 1596.576782,2370.230957 1595.828613,2372.920166 
z"/>
<path fill="#15853D" opacity="1.000000" stroke="none" 
	d="
M1482.088135,2360.569336 
	C1482.454468,2360.305176 1482.887451,2360.728760 1483.169800,2361.236328 
	C1483.254883,2361.389404 1482.920898,2361.775391 1482.446655,2362.392578 
	C1482.108765,2362.250488 1482.102905,2361.770264 1482.088135,2360.569336 
z"/>
<path fill="#489F67" opacity="1.000000" stroke="none" 
	d="
M1372.713501,1303.379395 
	C1374.041382,1303.174805 1375.369385,1302.970093 1377.764893,1302.738770 
	C1379.883179,1302.411499 1380.934082,1302.110840 1381.984863,1301.810303 
	C1384.847168,1301.381592 1387.709351,1300.952881 1391.684448,1300.542114 
	C1393.862427,1300.333130 1394.927490,1300.106201 1395.992676,1299.879395 
	C1398.853516,1299.422729 1401.714355,1298.966187 1405.687134,1298.511963 
	C1407.862793,1298.292847 1408.926514,1298.071411 1409.990234,1297.849854 
	C1413.496460,1297.385742 1417.002808,1296.921753 1421.652344,1296.471436 
	C1423.859375,1296.258667 1424.923096,1296.032104 1425.986694,1295.805542 
	C1446.745972,1293.995605 1467.505127,1292.185669 1489.745361,1290.503784 
	C1494.142334,1290.318359 1497.058228,1290.004883 1499.974243,1289.691284 
	C1510.702759,1289.161133 1521.431274,1288.630859 1533.686646,1288.274414 
	C1538.139771,1288.256592 1541.066162,1288.064697 1543.992432,1287.872925 
	C1558.705811,1287.841431 1573.419189,1287.810059 1589.765381,1288.033203 
	C1596.266724,1288.212158 1601.135010,1288.136353 1606.003418,1288.060669 
	C1616.103516,1288.571167 1626.203735,1289.081543 1637.746094,1289.889893 
	C1642.128540,1290.182129 1645.068726,1290.176392 1648.009033,1290.170654 
	C1669.435791,1292.047729 1690.862427,1293.924805 1713.511230,1296.068115 
	C1715.825317,1296.335815 1716.917358,1296.337280 1718.009399,1296.338623 
	C1720.864746,1296.764893 1723.719971,1297.191284 1727.755615,1297.939087 
	C1730.626953,1298.309204 1732.317993,1298.357910 1734.009155,1298.406494 
	C1736.229736,1298.789551 1738.450195,1299.172607 1741.950806,1299.921875 
	C1744.984375,1300.370239 1746.737793,1300.452637 1748.491333,1300.534912 
	C1750.494995,1300.869873 1752.498535,1301.204834 1755.719238,1301.992920 
	C1758.004150,1302.895264 1759.071777,1303.344604 1760.139526,1303.793945 
	C1761.604370,1303.850098 1763.069092,1303.906250 1765.746338,1304.140137 
	C1768.641968,1304.286865 1770.325195,1304.255981 1772.008423,1304.225098 
	C1773.326172,1304.461426 1774.643799,1304.697876 1777.058105,1305.389526 
	C1779.494019,1306.475830 1780.833374,1307.106812 1782.172729,1307.737915 
	C1805.679932,1309.279541 1828.437744,1314.640381 1851.357788,1322.385986 
	C1845.132324,1346.496704 1839.229370,1369.694702 1831.706421,1392.354980 
	C1819.987427,1427.654175 1807.507690,1462.716431 1789.971069,1495.714722 
	C1784.678589,1505.673584 1779.932129,1515.922607 1774.314697,1526.260864 
	C1770.096313,1526.312256 1766.450562,1526.457764 1762.909302,1525.918579 
	C1741.924805,1522.723999 1720.964600,1519.370605 1699.628052,1515.866699 
	C1698.166748,1515.676147 1697.073608,1515.689575 1695.210205,1515.592773 
	C1690.292236,1515.010132 1686.144531,1514.537842 1681.622803,1513.877197 
	C1680.159058,1513.690430 1679.069336,1513.692139 1677.208130,1513.594971 
	C1672.287109,1513.055664 1668.137573,1512.615234 1663.291016,1511.881836 
	C1659.579712,1511.500000 1656.565552,1511.411011 1652.684326,1511.213989 
	C1646.542847,1510.768188 1641.268311,1510.430420 1635.366577,1509.810303 
	C1631.150269,1509.453735 1627.561157,1509.379639 1623.155762,1509.233032 
	C1613.556152,1508.822021 1604.773071,1508.483521 1595.220703,1507.865723 
	C1576.974121,1507.777954 1559.496704,1507.969238 1541.106689,1508.166260 
	C1531.464844,1508.558716 1522.735352,1508.945557 1513.321411,1509.130005 
	C1508.433594,1509.358398 1504.230225,1509.789185 1499.154541,1510.237427 
	C1493.677002,1510.632568 1489.071777,1511.010376 1483.713989,1511.203125 
	C1479.981201,1511.407104 1477.001099,1511.795898 1473.194092,1512.247314 
	C1469.079834,1512.687012 1465.792358,1513.064209 1461.932861,1513.353027 
	C1460.239258,1513.496460 1459.117676,1513.728394 1457.144165,1513.999023 
	C1452.357056,1514.484375 1448.421997,1514.930908 1443.830811,1515.260376 
	C1441.453857,1515.467529 1439.733032,1515.791748 1437.194336,1516.196899 
	C1399.716919,1521.012329 1363.401733,1527.597290 1327.484375,1536.369995 
	C1323.965454,1537.229492 1320.271240,1537.371460 1316.522461,1537.106445 
	C1314.557495,1532.097046 1312.915894,1527.735229 1310.868042,1523.573364 
	C1300.003174,1501.493042 1288.203735,1479.829590 1278.288940,1457.333984 
	C1260.969849,1418.038452 1247.029053,1377.461060 1235.805298,1335.981323 
	C1238.994873,1334.419067 1242.027954,1332.184814 1245.398438,1331.400269 
	C1274.027710,1324.737427 1302.715820,1318.327271 1331.393921,1311.875366 
	C1334.917847,1311.082520 1338.486694,1310.490112 1343.412476,1309.474854 
	C1345.854248,1308.688599 1346.918213,1308.232422 1347.982300,1307.776367 
	C1350.212402,1307.378662 1352.442505,1306.981079 1355.747559,1306.553589 
	C1357.867798,1306.206787 1358.913208,1305.889771 1359.958618,1305.572754 
	C1361.349609,1305.313843 1362.740601,1305.054932 1365.440552,1304.782349 
	C1368.737549,1304.305664 1370.725464,1303.842529 1372.713501,1303.379395 
z"/>
<path fill="#15853D" opacity="1.000000" stroke="none" 
	d="
M2449.631836,1657.650635 
	C2447.122070,1659.506836 2444.300781,1661.467896 2441.215088,1662.068115 
	C2421.933594,1665.818115 2402.515137,1668.890869 2383.291748,1672.905884 
	C2359.526611,1677.869629 2335.891846,1683.464233 2312.229492,1688.911255 
	C2287.899902,1694.511719 2263.546143,1700.025879 2239.318115,1706.041260 
	C2225.777588,1709.402832 2212.470459,1713.705933 2197.772949,1717.799072 
	C2193.115723,1715.890991 2189.593750,1713.972656 2186.394775,1711.615479 
	C2124.172607,1665.762573 2057.699951,1627.252686 1987.040894,1595.937622 
	C1951.348511,1580.119263 1914.776489,1566.664062 1877.637085,1554.683350 
	C1873.426880,1553.325195 1868.056396,1553.372559 1866.845215,1547.266113 
	C1877.305176,1536.176392 1886.916992,1525.122437 1897.414551,1514.985474 
	C1913.653687,1499.304077 1929.687988,1483.240112 1947.255615,1469.140625 
	C1982.890869,1440.540405 2021.356812,1416.071167 2062.268555,1395.571777 
	C2067.868164,1393.297241 2072.704834,1395.874146 2077.523438,1398.101318 
	C2115.624756,1415.712769 2152.917480,1434.870239 2189.164307,1456.071899 
	C2248.214355,1490.611450 2304.458496,1529.276001 2356.760010,1573.303467 
	C2388.559326,1600.072266 2418.449951,1629.108765 2449.631836,1657.650635 
z"/>
<path fill="#000100" opacity="1.000000" stroke="none" 
	d="
M2061.926270,1394.985840 
	C2021.356812,1416.071167 1982.890869,1440.540405 1947.255615,1469.140625 
	C1929.687988,1483.240112 1913.653687,1499.304077 1897.414551,1514.985474 
	C1886.916992,1525.122437 1877.305176,1536.176392 1865.979248,1547.374268 
	C1862.363037,1547.695312 1859.991943,1547.745850 1857.775757,1547.184692 
	C1830.149170,1540.187622 1802.545288,1533.101685 1774.935547,1526.038574 
	C1779.932129,1515.922607 1784.678589,1505.673584 1789.971069,1495.714722 
	C1807.507690,1462.716431 1819.987427,1427.654175 1831.706421,1392.354980 
	C1839.229370,1369.694702 1845.132324,1346.496704 1851.980469,1322.792236 
	C1891.273682,1331.557861 1929.986084,1342.423950 1967.818726,1356.031250 
	C1997.182861,1366.592407 2026.039917,1378.567017 2055.070801,1390.043579 
	C2057.445068,1390.982178 2059.422363,1392.924194 2061.926270,1394.985840 
z"/>
<path fill="#000100" opacity="1.000000" stroke="none" 
	d="
M1235.049316,1336.098389 
	C1247.029053,1377.461060 1260.969849,1418.038452 1278.288940,1457.333984 
	C1288.203735,1479.829590 1300.003174,1501.493042 1310.868042,1523.573364 
	C1312.915894,1527.735229 1314.557495,1532.097046 1315.713379,1537.226562 
	C1289.795776,1545.531128 1264.551147,1552.975830 1239.306641,1560.420532 
	C1222.035156,1541.225586 1205.071045,1521.742188 1187.399902,1502.922485 
	C1171.761597,1486.267700 1154.901855,1470.836792 1136.647583,1457.005859 
	C1124.495361,1447.798096 1112.708862,1438.064331 1100.160645,1429.435669 
	C1089.553223,1422.141968 1078.073730,1416.119507 1067.008911,1409.486572 
	C1064.448486,1407.951660 1062.004395,1406.222534 1058.962646,1404.229492 
	C1060.608398,1401.989990 1062.505371,1399.456177 1065.031616,1398.312866 
	C1119.927124,1373.471191 1176.156128,1352.234497 1235.049316,1336.098389 
z"/>
<path fill="#3C6445" opacity="1.000000" stroke="none" 
	d="
M1616.542969,1016.554382 
	C1624.804932,1016.643616 1633.641235,1017.182617 1643.227783,1018.050659 
	C1634.925659,1019.852783 1625.876709,1021.257385 1616.542969,1016.554382 
z"/>
<path fill="#3C6445" opacity="1.000000" stroke="none" 
	d="
M1496.782104,1018.550659 
	C1503.467529,1017.574585 1510.908936,1016.845642 1519.267334,1016.215576 
	C1513.107544,1021.446350 1505.253418,1019.489441 1496.782104,1018.550659 
z"/>
<path fill="#3C6445" opacity="1.000000" stroke="none" 
	d="
M1605.305664,1287.802734 
	C1601.135010,1288.136353 1596.266724,1288.212158 1590.703125,1288.032227 
	C1594.874634,1287.699219 1599.741333,1287.621948 1605.305664,1287.802734 
z"/>
<path fill="#3C6445" opacity="1.000000" stroke="none" 
	d="
M1688.605469,1021.923584 
	C1691.567627,1021.687622 1695.149658,1021.759583 1699.355347,1022.121582 
	C1696.394409,1022.351501 1692.809814,1022.291504 1688.605469,1021.923584 
z"/>
<path fill="#3C6445" opacity="1.000000" stroke="none" 
	d="
M1647.421631,1289.892944 
	C1645.068726,1290.176392 1642.128540,1290.182129 1638.602905,1289.918213 
	C1640.956421,1289.637451 1643.895386,1289.626343 1647.421631,1289.892944 
z"/>
<path fill="#3C6445" opacity="1.000000" stroke="none" 
	d="
M1499.366943,1289.471436 
	C1497.058228,1290.004883 1494.142334,1290.318359 1490.612915,1290.443237 
	C1492.919556,1289.920166 1495.839600,1289.585815 1499.366943,1289.471436 
z"/>
<path fill="#3C6445" opacity="1.000000" stroke="none" 
	d="
M1543.389404,1287.647461 
	C1541.066162,1288.064697 1538.139771,1288.256592 1534.606934,1288.241211 
	C1536.929077,1287.830200 1539.857666,1287.626221 1543.389404,1287.647461 
z"/>
<path fill="#3C6445" opacity="1.000000" stroke="none" 
	d="
M1442.598267,1022.416748 
	C1444.996948,1021.816467 1447.979492,1021.426453 1451.715332,1021.218262 
	C1449.373169,1021.809021 1446.277588,1022.217957 1442.598267,1022.416748 
z"/>
<path fill="#3C6445" opacity="1.000000" stroke="none" 
	d="
M1748.086182,1300.271484 
	C1746.737793,1300.452637 1744.984375,1300.370239 1742.619873,1300.018799 
	C1743.899536,1299.835693 1745.790161,1299.921753 1748.086182,1300.271484 
z"/>
<path fill="#3C6445" opacity="1.000000" stroke="none" 
	d="
M1372.090820,1303.268555 
	C1370.725464,1303.842529 1368.737549,1304.305664 1366.132935,1304.636475 
	C1367.500366,1304.055298 1369.484253,1303.606445 1372.090820,1303.268555 
z"/>
<path fill="#3C6445" opacity="1.000000" stroke="none" 
	d="
M1771.547363,1303.971680 
	C1770.325195,1304.255981 1768.641968,1304.286865 1766.479248,1304.119873 
	C1767.695312,1303.854126 1769.390747,1303.786255 1771.547363,1303.971680 
z"/>
<path fill="#3C6445" opacity="1.000000" stroke="none" 
	d="
M1780.616577,1032.081787 
	C1781.945679,1031.978638 1783.900635,1032.157715 1786.256348,1032.645752 
	C1784.852051,1032.757812 1783.047363,1032.561035 1780.616577,1032.081787 
z"/>
<path fill="#3C6445" opacity="1.000000" stroke="none" 
	d="
M1792.447754,1034.038818 
	C1793.685181,1033.827271 1795.378296,1033.870483 1797.521973,1034.174072 
	C1796.282715,1034.387451 1794.593140,1034.340454 1792.447754,1034.038818 
z"/>
<path fill="#3C6445" opacity="1.000000" stroke="none" 
	d="
M1733.558350,1298.132080 
	C1732.317993,1298.357910 1730.626953,1298.309204 1728.471191,1298.026611 
	C1729.706787,1297.814331 1731.407227,1297.835938 1733.558350,1298.132080 
z"/>
<path fill="#3C6445" opacity="1.000000" stroke="none" 
	d="
M1837.987061,1041.685303 
	C1839.383911,1041.929810 1841.258545,1042.522217 1843.593262,1043.530029 
	C1842.190430,1043.307983 1840.327515,1042.670532 1837.987061,1041.685303 
z"/>
<path fill="#3C6445" opacity="1.000000" stroke="none" 
	d="
M1718.364990,1024.224365 
	C1719.085327,1024.027954 1720.170044,1024.033325 1721.612549,1024.255249 
	C1720.889893,1024.456543 1719.809570,1024.441284 1718.364990,1024.224365 
z"/>
<path fill="#3C6445" opacity="1.000000" stroke="none" 
	d="
M1468.393066,1020.189148 
	C1469.073975,1019.887512 1470.146240,1019.730042 1471.609985,1019.711914 
	C1470.929077,1020.011963 1469.856934,1020.172668 1468.393066,1020.189148 
z"/>
<path fill="#3C6445" opacity="1.000000" stroke="none" 
	d="
M1666.365723,1019.985291 
	C1667.077026,1019.750305 1668.162842,1019.702942 1669.624512,1019.836304 
	C1668.913574,1020.068909 1667.826782,1020.120911 1666.365723,1019.985291 
z"/>
<path fill="#3C6445" opacity="1.000000" stroke="none" 
	d="
M1781.779175,1307.315063 
	C1780.833374,1307.106812 1779.494019,1306.475830 1777.720215,1305.487915 
	C1778.652344,1305.718140 1780.019043,1306.305176 1781.779175,1307.315063 
z"/>
<path fill="#3C6445" opacity="1.000000" stroke="none" 
	d="
M1734.360352,1026.114746 
	C1735.083740,1025.910767 1736.171387,1025.913452 1737.621094,1026.127808 
	C1736.896973,1026.333374 1735.810791,1026.327393 1734.360352,1026.114746 
z"/>
<path fill="#3C6445" opacity="1.000000" stroke="none" 
	d="
M1752.561890,1028.225464 
	C1753.349976,1028.072632 1754.699829,1028.149780 1756.392090,1028.465820 
	C1755.530762,1028.621704 1754.327271,1028.538452 1752.561890,1028.225464 
z"/>
<path fill="#3C6445" opacity="1.000000" stroke="none" 
	d="
M1353.864990,1032.775146 
	C1354.564697,1032.372681 1355.877197,1032.007080 1357.594971,1031.763428 
	C1356.826172,1032.194214 1355.651855,1032.503052 1353.864990,1032.775146 
z"/>
<path fill="#3C6445" opacity="1.000000" stroke="none" 
	d="
M1806.352539,1036.109985 
	C1807.085815,1035.922729 1808.175903,1035.956543 1809.616943,1036.224365 
	C1808.881592,1036.415894 1807.795532,1036.373413 1806.352539,1036.109985 
z"/>
<path fill="#3C6445" opacity="1.000000" stroke="none" 
	d="
M1818.348145,1038.030762 
	C1819.086426,1037.861328 1820.179565,1037.917603 1821.620361,1038.216675 
	C1820.879761,1038.391846 1819.791260,1038.324219 1818.348145,1038.030762 
z"/>
<path fill="#3C6445" opacity="1.000000" stroke="none" 
	d="
M1827.792114,1039.808960 
	C1828.620728,1039.665771 1829.771851,1039.759644 1831.452637,1040.099121 
	C1830.693115,1040.245117 1829.403931,1040.145508 1827.792114,1039.808960 
z"/>
<path fill="#3C6445" opacity="1.000000" stroke="none" 
	d="
M1402.416016,1026.360107 
	C1403.079834,1026.009277 1404.141968,1025.782837 1405.602051,1025.685791 
	C1404.938110,1026.038330 1403.876343,1026.261475 1402.416016,1026.360107 
z"/>
<path fill="#3C6445" opacity="1.000000" stroke="none" 
	d="
M1347.568848,1307.672241 
	C1346.918213,1308.232422 1345.854248,1308.688599 1344.234863,1309.316895 
	C1344.838257,1308.848633 1345.996704,1308.208374 1347.568848,1307.672241 
z"/>
<path fill="#3C6445" opacity="1.000000" stroke="none" 
	d="
M1425.587646,1295.680054 
	C1424.923096,1296.032104 1423.859375,1296.258667 1422.397949,1296.355713 
	C1423.062866,1296.002319 1424.125854,1295.778442 1425.587646,1295.680054 
z"/>
<path fill="#3C6445" opacity="1.000000" stroke="none" 
	d="
M1717.645752,1296.124268 
	C1716.917358,1296.337280 1715.825317,1296.335815 1714.367432,1296.126953 
	C1715.095215,1295.916138 1716.188599,1295.912964 1717.645752,1296.124268 
z"/>
<path fill="#3C6445" opacity="1.000000" stroke="none" 
	d="
M1409.592041,1297.712891 
	C1408.926514,1298.071411 1407.862793,1298.292847 1406.400635,1298.393555 
	C1407.065918,1298.040283 1408.129883,1297.807983 1409.592041,1297.712891 
z"/>
<path fill="#3C6445" opacity="1.000000" stroke="none" 
	d="
M1395.593262,1299.748047 
	C1394.927490,1300.106201 1393.862427,1300.333130 1392.399414,1300.427490 
	C1393.065674,1300.068970 1394.129639,1299.842896 1395.593262,1299.748047 
z"/>
<path fill="#3C6445" opacity="1.000000" stroke="none" 
	d="
M1381.576904,1301.692383 
	C1380.934082,1302.110840 1379.883179,1302.411499 1378.424438,1302.610962 
	C1379.067261,1302.197998 1380.118042,1301.886353 1381.576904,1301.692383 
z"/>
<path fill="#3C6445" opacity="1.000000" stroke="none" 
	d="
M1759.880859,1303.458740 
	C1759.071777,1303.344604 1758.004150,1302.895264 1756.476440,1302.078613 
	C1757.218384,1302.182007 1758.420166,1302.652832 1759.880859,1303.458740 
z"/>
<path fill="#3C6445" opacity="1.000000" stroke="none" 
	d="
M1359.550171,1305.466797 
	C1358.913208,1305.889771 1357.867798,1306.206787 1356.414062,1306.421387 
	C1357.051025,1305.999634 1358.096436,1305.680298 1359.550171,1305.466797 
z"/>
<path fill="#35352A" opacity="1.000000" stroke="none" 
	d="
M1239.588867,1561.050903 
	C1264.551147,1552.975830 1289.795776,1545.531128 1315.849365,1537.966431 
	C1320.271240,1537.371460 1323.965454,1537.229492 1327.484375,1536.369995 
	C1363.401733,1527.597290 1399.716919,1521.012329 1437.659668,1516.358887 
	C1440.790894,1516.085693 1442.638916,1515.731567 1444.486816,1515.377441 
	C1448.421997,1514.930908 1452.357056,1514.484375 1457.518921,1514.141235 
	C1459.998779,1513.976929 1461.251831,1513.709229 1462.505005,1513.441528 
	C1465.792358,1513.064209 1469.079834,1512.687012 1473.775635,1512.464355 
	C1478.278198,1512.208740 1481.372314,1511.798462 1484.466553,1511.388184 
	C1489.071777,1511.010376 1493.677002,1510.632568 1499.835205,1510.475342 
	C1505.594116,1510.241455 1509.800049,1509.786987 1514.005981,1509.332520 
	C1522.735352,1508.945557 1531.464844,1508.558716 1541.878906,1508.431641 
	C1553.807251,1509.005005 1564.052002,1509.584106 1574.294312,1509.542114 
	C1581.527954,1509.512451 1588.758179,1508.640747 1595.989868,1508.145020 
	C1604.773071,1508.483521 1613.556152,1508.822021 1623.767822,1509.577271 
	C1628.795410,1510.026855 1632.394653,1510.059692 1635.993896,1510.092529 
	C1641.268311,1510.430420 1646.542847,1510.768188 1653.186523,1511.524414 
	C1657.699951,1512.020142 1660.844116,1512.097412 1663.988159,1512.174805 
	C1668.137573,1512.615234 1672.287109,1513.055664 1677.575439,1513.803955 
	C1679.808472,1514.096558 1680.902710,1514.081055 1681.996948,1514.065552 
	C1686.144531,1514.537842 1690.292236,1515.010132 1695.577271,1515.800049 
	C1697.808594,1516.101929 1698.902344,1516.086304 1699.996216,1516.070557 
	C1720.964600,1519.370605 1741.924805,1522.723999 1762.909302,1525.918579 
	C1766.450562,1526.457764 1770.096313,1526.312256 1774.314575,1526.260986 
	C1802.545288,1533.101685 1830.149170,1540.187622 1857.775757,1547.184692 
	C1859.991943,1547.745850 1862.363037,1547.695312 1865.528076,1547.821045 
	C1868.056396,1553.372559 1873.426880,1553.325195 1877.637085,1554.683350 
	C1914.776489,1566.664062 1951.348511,1580.119263 1987.040894,1595.937622 
	C2057.699951,1627.252686 2124.172607,1665.762573 2186.394775,1711.615479 
	C2189.593750,1713.972656 2193.115723,1715.890991 2197.152832,1718.225464 
	C2204.608643,1724.306885 2211.150635,1730.495850 2218.229248,1735.993652 
	C2262.266357,1770.196167 2302.888916,1808.151489 2341.140381,1848.613037 
	C2389.724854,1900.005005 2390.858398,1979.171509 2343.097168,2031.155884 
	C2298.685791,2079.494141 2227.455566,2080.744385 2180.808350,2037.576294 
	C2170.792969,2028.307861 2161.458740,2018.299438 2151.880615,2008.562988 
	C2100.875488,1956.715332 2043.494507,1913.064087 1980.966431,1876.126221 
	C1965.496582,1866.987427 1949.383423,1858.937744 1932.298584,1849.799927 
	C1894.787964,1830.652344 1857.257202,1815.012817 1818.317993,1803.324707 
	C1785.837769,1793.575562 1752.696045,1786.022217 1719.810791,1777.639771 
	C1714.695312,1776.335815 1709.334229,1775.044434 1703.790283,1778.070312 
	C1701.627930,1776.971069 1700.122437,1776.071289 1698.536255,1775.894775 
	C1674.584229,1773.230225 1650.621826,1770.660522 1626.109131,1767.527222 
	C1619.339233,1766.143066 1613.117676,1764.548096 1606.905273,1764.583618 
	C1574.597900,1764.767578 1542.292847,1765.366821 1509.425903,1765.613281 
	C1506.582275,1765.794189 1504.299805,1766.183472 1501.242188,1766.641113 
	C1496.308716,1767.095093 1492.150146,1767.480835 1487.497803,1767.691040 
	C1485.339722,1767.833862 1483.675415,1768.152344 1481.297729,1768.577759 
	C1477.714233,1769.033447 1474.844116,1769.382202 1471.442383,1769.589111 
	C1469.084229,1770.376831 1467.257568,1771.306396 1464.649414,1772.303223 
	C1438.117676,1777.058960 1412.367554,1781.747314 1386.617554,1786.435669 
	C1384.878418,1784.090454 1382.765137,1781.936157 1381.457275,1779.371094 
	C1366.074097,1749.201782 1350.889404,1718.931274 1335.493042,1688.768799 
	C1323.189819,1664.666138 1307.127319,1643.140991 1289.810059,1622.449707 
	C1272.983276,1602.344604 1256.503418,1581.949219 1239.588867,1561.050903 
z"/>
<path fill="#35352A" opacity="1.000000" stroke="none" 
	d="
M1604.149902,2228.663330 
	C1600.900757,2223.528564 1595.628662,2224.433350 1590.760620,2224.220459 
	C1553.228394,2222.580078 1516.148193,2225.921143 1478.711182,2234.567871 
	C1476.603638,2226.946777 1474.890991,2219.165283 1474.108521,2211.291748 
	C1470.428955,2174.258789 1467.600708,2137.131348 1463.326050,2100.169678 
	C1458.822632,2061.232422 1454.015503,2022.282471 1444.478638,1984.133789 
	C1444.239014,1983.175049 1444.233276,1982.157837 1444.893555,1980.222412 
	C1462.701904,1976.593384 1479.716553,1973.785522 1496.772339,1971.254150 
	C1525.082397,1967.052979 1553.622070,1966.075928 1582.158203,1966.698242 
	C1602.042114,1967.131836 1621.893188,1969.071899 1642.302734,1970.851929 
	C1645.685669,1972.186768 1648.474976,1973.402344 1651.371948,1973.770630 
	C1688.116821,1978.441895 1724.001709,1986.908569 1759.360229,1997.807983 
	C1765.377075,1999.662720 1771.575439,2000.928467 1777.689941,2002.466309 
	C1780.608521,2004.017212 1783.391113,2005.940186 1786.465820,2007.063721 
	C1844.138672,2028.134644 1897.328857,2057.496094 1946.699585,2093.845947 
	C1981.125244,2119.192627 2012.949707,2147.558594 2041.722534,2179.157227 
	C2083.648193,2225.200684 2085.337646,2299.987305 2046.418945,2348.656982 
	C2024.559814,2375.992676 1996.236694,2391.173584 1961.550293,2393.322754 
	C1927.320923,2395.443604 1898.326294,2382.506104 1874.105957,2358.772217 
	C1856.978882,2341.989014 1840.250122,2324.861328 1821.223511,2310.094238 
	C1769.518677,2269.964600 1711.877197,2243.014893 1645.985840,2230.251465 
	C1634.467896,2228.295410 1624.500122,2226.702881 1614.547607,2225.021240 
	C1610.361328,2224.313721 1606.784668,2225.074463 1604.149902,2228.663330 
z"/>
<path fill="#15843D" opacity="1.000000" stroke="none" 
	d="
M1777.956909,2001.780640 
	C1771.575439,2000.928467 1765.377075,1999.662720 1759.360229,1997.807983 
	C1724.001709,1986.908569 1688.116821,1978.441895 1651.371948,1973.770630 
	C1648.474976,1973.402344 1645.685669,1972.186768 1642.535645,1970.065674 
	C1649.700439,1939.262207 1656.147583,1909.448242 1664.917114,1880.333862 
	C1675.416504,1845.475586 1689.040161,1811.661011 1704.409546,1778.606445 
	C1709.334229,1775.044434 1714.695312,1776.335815 1719.810791,1777.639771 
	C1752.696045,1786.022217 1785.837769,1793.575562 1818.317993,1803.324707 
	C1857.257202,1815.012817 1894.787964,1830.652344 1931.636108,1849.588623 
	C1925.293457,1856.961670 1918.742432,1864.414551 1911.322876,1870.869019 
	C1890.078735,1889.350220 1867.642700,1906.435913 1847.978149,1926.759521 
	C1839.241943,1935.788574 1829.167358,1943.507080 1819.968750,1952.107544 
	C1804.208862,1966.842773 1789.307373,1982.354248 1777.956909,2001.780640 
z"/>
<path fill="#15843D" opacity="1.000000" stroke="none" 
	d="
M1604.166504,2229.505127 
	C1606.784668,2225.074463 1610.361328,2224.313721 1614.547607,2225.021240 
	C1624.500122,2226.702881 1634.467896,2228.295410 1645.213013,2230.141113 
	C1643.583496,2237.580322 1641.723755,2245.046631 1638.662842,2251.982666 
	C1624.508545,2284.055664 1613.180420,2317.097900 1603.706665,2350.816162 
	C1602.360596,2355.606934 1600.423462,2360.231201 1598.345581,2365.533203 
	C1597.910522,2332.704102 1596.689087,2299.254639 1601.324219,2265.953369 
	C1602.963013,2254.179932 1603.268799,2242.221191 1604.166504,2229.505127 
z"/>
<path fill="#000100" opacity="1.000000" stroke="none" 
	d="
M1703.790283,1778.070312 
	C1689.040161,1811.661011 1675.416504,1845.475586 1664.917114,1880.333862 
	C1656.147583,1909.448242 1649.700439,1939.262207 1641.991821,1969.552734 
	C1621.893188,1969.071899 1602.042114,1967.131836 1582.158203,1966.698242 
	C1553.622070,1966.075928 1525.082397,1967.052979 1496.772339,1971.254150 
	C1479.716553,1973.785522 1462.701904,1976.593384 1444.898682,1979.387085 
	C1433.808350,1939.297241 1424.225098,1898.887695 1412.867432,1858.983032 
	C1406.891113,1837.984619 1397.806519,1817.871460 1390.144653,1797.351562 
	C1388.985352,1794.246948 1387.930542,1791.103271 1386.722412,1787.206665 
	C1412.367554,1781.747314 1438.117676,1777.058960 1464.899658,1772.725342 
	C1466.281372,1773.665649 1466.782715,1774.056396 1467.743652,1774.873047 
	C1490.924194,1809.747925 1537.248413,1870.551880 1544.431030,1875.732788 
	C1574.818359,1842.120239 1601.556030,1805.717896 1626.661743,1768.068604 
	C1650.621826,1770.660522 1674.584229,1773.230225 1698.536255,1775.894775 
	C1700.122437,1776.071289 1701.627930,1776.971069 1703.790283,1778.070312 
z"/>
<path fill="#34362A" opacity="1.000000" stroke="none" 
	d="
M1045.886475,1519.960205 
	C1052.083984,1521.853760 1057.589355,1523.272217 1062.862183,1525.296143 
	C1078.218140,1531.190063 1089.255981,1541.164673 1090.885620,1558.445068 
	C1092.666260,1577.328003 1087.118042,1593.634277 1070.669678,1604.386475 
	C1064.668701,1608.309082 1057.567017,1611.214233 1050.563354,1612.812500 
	C1028.750977,1617.789551 1006.783264,1617.011841 985.296875,1610.965942 
	C966.394836,1605.647217 954.304626,1593.309204 951.045837,1573.385498 
	C949.582703,1564.440186 951.160217,1562.323364 959.919739,1562.081299 
	C968.907776,1561.833008 977.908447,1562.076904 986.903015,1562.019897 
	C991.636230,1561.989868 995.305603,1563.171021 996.859558,1568.350098 
	C999.446716,1576.972290 1006.035278,1580.244141 1014.436584,1580.312012 
	C1020.409241,1580.360229 1026.428467,1580.221924 1032.346802,1579.505615 
	C1036.457275,1579.008301 1040.045776,1576.735107 1040.777466,1572.142578 
	C1041.544678,1567.326172 1038.334351,1564.439575 1034.461792,1563.096558 
	C1027.253418,1560.596680 1019.793152,1558.828613 1012.457214,1556.689331 
	C1000.968750,1553.338989 989.027283,1551.021851 978.117004,1546.319702 
	C956.708679,1537.093506 947.966187,1516.595215 954.419556,1494.251465 
	C956.809143,1485.977905 961.316650,1479.074463 968.087585,1473.836670 
	C971.484314,1471.208862 975.153137,1468.614014 979.116394,1467.089111 
	C1006.004456,1456.744385 1033.156250,1456.423950 1060.055908,1466.744141 
	C1072.437866,1471.494629 1081.137695,1480.567383 1085.172852,1493.526978 
	C1085.959351,1496.052856 1086.501465,1498.711548 1086.716309,1501.344971 
	C1087.031738,1505.208496 1085.356689,1507.984375 1081.151245,1508.017822 
	C1069.831909,1508.107910 1058.496582,1508.284912 1047.202637,1507.723267 
	C1044.918945,1507.609863 1042.265137,1504.773926 1040.677856,1502.552979 
	C1033.383179,1492.346191 1018.431396,1488.920410 1007.958374,1495.373901 
	C1001.395020,1499.418213 1001.093445,1505.488647 1007.666931,1509.506470 
	C1011.009888,1511.549683 1014.933044,1512.872437 1018.765869,1513.838867 
	C1027.483398,1516.037109 1036.307251,1517.813843 1045.886475,1519.960205 
z"/>
<path fill="#34362A" opacity="1.000000" stroke="none" 
	d="
M752.479126,1612.394531 
	C743.027649,1613.510864 738.955139,1609.354492 736.686890,1601.369385 
	C734.153503,1592.451172 733.069275,1592.049072 723.960510,1591.911377 
	C712.976135,1591.745239 701.984863,1591.739258 691.001038,1591.925781 
	C682.324951,1592.073120 681.601257,1592.765503 678.639038,1600.669556 
	C674.294678,1612.261475 674.294983,1612.295166 662.452148,1612.384888 
	C654.461975,1612.445557 646.469910,1612.470215 638.480957,1612.356079 
	C635.244019,1612.309814 632.013000,1611.851929 627.280212,1611.455811 
	C628.378235,1606.788818 628.884888,1602.984741 630.162415,1599.459961 
	C643.549377,1562.525391 657.060669,1525.635986 670.534119,1488.732788 
	C672.703552,1482.790771 675.036987,1476.900513 676.966003,1470.881104 
	C678.952026,1464.683594 682.631104,1461.673218 689.417114,1461.836182 
	C702.061401,1462.139893 714.723755,1462.137329 727.367798,1461.825439 
	C734.012085,1461.661499 737.768005,1464.181152 739.966248,1470.543091 
	C745.619202,1486.903809 751.751648,1503.098633 757.673157,1519.366943 
	C767.238708,1545.646362 776.821533,1571.919800 786.307373,1598.228027 
	C787.620728,1601.870483 788.422119,1605.697632 789.484375,1609.525146 
	C783.309998,1613.819336 777.159607,1612.072388 771.385742,1612.341553 
	C765.405823,1612.620117 759.402649,1612.401001 752.479126,1612.394531 
M711.700867,1515.750000 
	C710.609131,1513.246216 709.517456,1510.742310 708.425720,1508.238525 
	C707.581665,1508.267822 706.737610,1508.297241 705.893616,1508.326538 
	C701.719482,1522.859497 697.424072,1537.360352 693.565308,1551.976440 
	C693.193298,1553.385742 695.354980,1556.913696 696.640320,1557.075562 
	C705.001282,1558.127686 713.478027,1558.948853 723.085632,1556.048462 
	C719.864868,1542.289185 715.749695,1529.786377 711.700867,1515.750000 
z"/>
<path fill="#34362A" opacity="1.000000" stroke="none" 
	d="
M905.965088,1498.110474 
	C893.318176,1498.120605 881.663452,1498.002075 870.013245,1498.179321 
	C859.927124,1498.332642 858.748413,1499.689575 858.530457,1509.973145 
	C858.495178,1511.636353 858.466492,1513.308716 858.591370,1514.964844 
	C859.140015,1522.239380 860.390137,1523.775269 867.670715,1523.923950 
	C880.650146,1524.189331 893.638123,1524.017700 906.622437,1524.064331 
	C921.853210,1524.119141 921.994934,1524.275757 922.031006,1539.920166 
	C922.037903,1542.916138 922.118652,1545.921021 921.930237,1548.906860 
	C921.441528,1556.647705 920.139526,1558.162964 912.250122,1558.340332 
	C899.937317,1558.617188 887.614685,1558.439331 875.296265,1558.485840 
	C859.662842,1558.544800 859.349548,1558.743774 858.746887,1574.749023 
	C858.396301,1584.060547 858.695374,1593.396362 858.344238,1602.707764 
	C858.046997,1610.591675 856.658142,1612.030151 848.784058,1612.251343 
	C838.804932,1612.531494 828.804260,1612.529419 818.826782,1612.212158 
	C812.112854,1611.998779 810.902771,1610.487427 810.337708,1603.761963 
	C810.143127,1601.445435 810.213684,1599.104004 810.213379,1596.773926 
	C810.207520,1556.821411 810.187439,1516.868896 810.221375,1476.916382 
	C810.234009,1462.086304 810.423340,1461.909424 825.339905,1461.893433 
	C855.970154,1461.860474 886.600403,1461.881348 917.230652,1461.890137 
	C919.560547,1461.890869 921.906128,1461.812988 924.217285,1462.043823 
	C930.344788,1462.655029 931.661621,1463.794434 931.970764,1470.119751 
	C932.295410,1476.761230 932.303955,1483.445190 931.955444,1490.084473 
	C931.637390,1496.141846 930.170349,1497.508057 923.932678,1497.906250 
	C918.293518,1498.266113 912.618469,1498.064331 905.965088,1498.110474 
z"/>
<path fill="#3C6445" opacity="1.000000" stroke="none" 
	d="
M1595.220703,1507.865723 
	C1588.758179,1508.640747 1581.527954,1509.512451 1574.294312,1509.542114 
	C1564.052002,1509.584106 1553.807251,1509.005005 1542.791382,1508.426025 
	C1559.496704,1507.969238 1576.974121,1507.777954 1595.220703,1507.865723 
z"/>
<path fill="#3C6445" opacity="1.000000" stroke="none" 
	d="
M1513.321411,1509.130127 
	C1509.800049,1509.786987 1505.594116,1510.241455 1500.707520,1510.458008 
	C1504.230225,1509.789185 1508.433594,1509.358398 1513.321411,1509.130127 
z"/>
<path fill="#3C6445" opacity="1.000000" stroke="none" 
	d="
M1635.366577,1509.810303 
	C1632.394653,1510.059692 1628.795410,1510.026855 1624.584229,1509.649780 
	C1627.561157,1509.379639 1631.150269,1509.453735 1635.366577,1509.810303 
z"/>
<path fill="#3C6445" opacity="1.000000" stroke="none" 
	d="
M1483.713989,1511.203125 
	C1481.372314,1511.798462 1478.278198,1512.208740 1474.602417,1512.401978 
	C1477.001099,1511.795898 1479.981201,1511.407104 1483.713989,1511.203125 
z"/>
<path fill="#3C6445" opacity="1.000000" stroke="none" 
	d="
M1663.291016,1511.881836 
	C1660.844116,1512.097412 1657.699951,1512.020142 1654.053711,1511.632324 
	C1656.565552,1511.411011 1659.579712,1511.500000 1663.291016,1511.881836 
z"/>
<path fill="#3C6445" opacity="1.000000" stroke="none" 
	d="
M1443.830811,1515.260376 
	C1442.638916,1515.731567 1440.790894,1516.085693 1438.477539,1516.277832 
	C1439.733032,1515.791748 1441.453857,1515.467529 1443.830811,1515.260376 
z"/>
<path fill="#3C6445" opacity="1.000000" stroke="none" 
	d="
M1461.932861,1513.353027 
	C1461.251831,1513.709229 1459.998779,1513.976929 1458.370850,1514.102539 
	C1459.117676,1513.728394 1460.239258,1513.496460 1461.932861,1513.353027 
z"/>
<path fill="#3C6445" opacity="1.000000" stroke="none" 
	d="
M1681.622803,1513.877197 
	C1680.902710,1514.081055 1679.808472,1514.096558 1678.346924,1513.902832 
	C1679.069336,1513.692139 1680.159058,1513.690430 1681.622803,1513.877197 
z"/>
<path fill="#3C6445" opacity="1.000000" stroke="none" 
	d="
M1699.628052,1515.866699 
	C1698.902344,1516.086304 1697.808594,1516.101929 1696.347656,1515.910278 
	C1697.073608,1515.689575 1698.166748,1515.676147 1699.628052,1515.866699 
z"/>
<path fill="#479E66" opacity="1.000000" stroke="none" 
	d="
M1626.109131,1767.527222 
	C1601.556030,1805.717896 1574.818359,1842.120239 1544.431030,1875.732788 
	C1537.248413,1870.551880 1490.924194,1809.747925 1468.147705,1774.374512 
	C1469.486938,1772.080811 1470.730591,1770.906006 1471.974121,1769.731079 
	C1474.844116,1769.382202 1477.714233,1769.033447 1481.791748,1768.733398 
	C1484.663330,1768.477051 1486.327515,1768.171753 1487.991699,1767.866577 
	C1492.150146,1767.480835 1496.308716,1767.095093 1501.803955,1766.821045 
	C1505.422974,1766.562256 1507.704956,1766.191772 1509.987061,1765.821533 
	C1542.292847,1765.366821 1574.597900,1764.767578 1606.905273,1764.583618 
	C1613.117676,1764.548096 1619.339233,1766.143066 1626.109131,1767.527222 
z"/>
<path fill="#3C6445" opacity="1.000000" stroke="none" 
	d="
M1509.425903,1765.613159 
	C1507.704956,1766.191772 1505.422974,1766.562256 1502.579102,1766.752686 
	C1504.299805,1766.183472 1506.582275,1765.794189 1509.425903,1765.613159 
z"/>
<path fill="#3C6445" opacity="1.000000" stroke="none" 
	d="
M1471.442505,1769.589233 
	C1470.730591,1770.906006 1469.486938,1772.080811 1467.839478,1773.754150 
	C1466.782715,1774.056396 1466.281372,1773.665649 1465.681396,1772.658081 
	C1467.257568,1771.306396 1469.084229,1770.376831 1471.442505,1769.589233 
z"/>
<path fill="#3C6445" opacity="1.000000" stroke="none" 
	d="
M1487.497803,1767.690918 
	C1486.327515,1768.171753 1484.663330,1768.477051 1482.505127,1768.626465 
	C1483.675415,1768.152344 1485.339722,1767.833862 1487.497803,1767.690918 
z"/>
<path fill="#15843D" opacity="1.000000" stroke="none" 
	d="
M711.899292,1516.459473 
	C715.749695,1529.786377 719.864868,1542.289185 723.085632,1556.048462 
	C713.478027,1558.948853 705.001282,1558.127686 696.640320,1557.075562 
	C695.354980,1556.913696 693.193298,1553.385742 693.565308,1551.976440 
	C697.424072,1537.360352 701.719482,1522.859497 705.893616,1508.326538 
	C706.737610,1508.297241 707.581665,1508.267822 708.425720,1508.238525 
	C709.517456,1510.742310 710.609131,1513.246216 711.899292,1516.459473 
z"/>
</svg>